<?xml version="1.0" encoding="utf-8"?>
<!-- Generator: Adobe Illustrator 22.1.0, SVG Export Plug-In . SVG Version: 6.00 Build 0)  -->
<!DOCTYPE svg PUBLIC "-//W3C//DTD SVG 1.1//EN" "http://www.w3.org/Graphics/SVG/1.1/DTD/svg11.dtd">
<svg version="1.1" id="Layer_1" xmlns="http://www.w3.org/2000/svg" xmlns:xlink="http://www.w3.org/1999/xlink" x="0px" y="0px"
	 viewBox="0 0 304.7 152.7" style="enable-background:new 0 0 304.7 152.7;" xml:space="preserve">
<style type="text/css">
	.st0{fill:#FFFFFF;}
	.st1{clip-path:url(#SVGID_2_);fill:#FFFFFF;}
</style>
<g>
	<path class="st0" d="M34.8,120.2c-0.3,0.2-0.5,0.4-0.5,0.5c-0.1,0.1-0.1,0.2-0.2,0.3c-0.1,0.2-0.2,0.4-0.4,0.7
		c-0.1,0.3-0.3,0.6-0.5,1.1c-0.2,0.4-0.3,1-0.5,1.6c-0.3,1.1-0.6,2.3-1,3.7c-0.4,1.3-0.7,2.7-1.1,4.1c-0.4,1.4-0.8,2.8-1.2,4.3
		c-0.4,1.4-0.8,2.8-1.1,4.1l-1.1,3.2h-0.3c-0.5-1.6-0.9-3.2-1.3-4.7c-0.4-1.5-0.8-2.9-1.2-4.3c-0.4-1.4-0.8-2.7-1.1-4
		c-0.4-1.3-0.7-2.6-1.1-3.8c-0.3,1-0.6,2.1-0.9,3.3c-0.3,1.1-0.6,2.3-1,3.5c-0.3,1.2-0.6,2.3-1,3.5c-0.3,1.1-0.6,2.2-0.9,3.3
		l-1.2,3.3H17c-0.5-1.8-1.1-3.6-1.6-5.2c-0.5-1.6-1-3.2-1.4-4.8c-0.5-1.5-0.9-3-1.3-4.4s-0.9-2.9-1.3-4.3c-0.1-0.4-0.2-0.8-0.3-1.1
		c-0.1-0.3-0.2-0.6-0.3-0.9c-0.1-0.3-0.2-0.5-0.3-0.8c-0.1-0.2-0.2-0.5-0.3-0.8c-0.1-0.1-0.1-0.3-0.2-0.5c-0.1-0.2-0.2-0.4-0.4-0.6
		c-0.2-0.2-0.4-0.4-0.6-0.5c-0.2-0.1-0.6-0.2-1-0.3v-0.4h7.5v0.3c-0.1,0-0.2,0-0.5,0.1c-0.2,0-0.4,0.1-0.7,0.2
		c-0.2,0.1-0.4,0.3-0.6,0.5c-0.2,0.2-0.3,0.5-0.3,0.9c0,0.2,0.1,0.7,0.3,1.4c0.2,0.7,0.4,1.6,0.7,2.7c0.3,1,0.6,2.2,1,3.4
		c0.4,1.2,0.7,2.5,1.1,3.7c0.4,1.2,0.7,2.3,1,3.4c0.3,1,0.6,1.9,0.8,2.6c0.1-0.2,0.2-0.6,0.4-1.4c0.2-0.8,0.5-1.7,0.8-2.8
		c0.3-1.1,0.7-2.4,1.1-3.9c0.4-1.4,0.8-2.9,1.2-4.5c-0.3-0.9-0.5-1.7-0.7-2.4c-0.2-0.7-0.4-1.4-0.7-2c-0.1-0.2-0.2-0.4-0.3-0.6
		c-0.1-0.2-0.3-0.4-0.5-0.6c-0.2-0.2-0.5-0.3-0.8-0.5c-0.3-0.1-0.7-0.2-1.1-0.2v-0.4h8.3v0.3c-0.1,0-0.3,0.1-0.6,0.1
		c-0.3,0-0.5,0.1-0.8,0.3c-0.3,0.1-0.5,0.3-0.7,0.5c-0.2,0.2-0.3,0.5-0.3,0.8c0,0.1,0.1,0.6,0.3,1.4c0.2,0.8,0.4,1.7,0.7,2.8
		c0.3,1.1,0.6,2.3,1,3.6c0.4,1.3,0.7,2.6,1.1,3.8c0.3,1.2,0.6,2.3,0.9,3.2c0.3,1,0.5,1.7,0.6,2.1c0.1-0.2,0.1-0.5,0.3-1
		c0.1-0.5,0.3-1.1,0.5-1.9c0.2-0.7,0.4-1.6,0.7-2.5c0.2-0.9,0.5-1.8,0.7-2.8c0.2-0.9,0.5-1.9,0.7-2.8c0.2-0.9,0.5-1.8,0.7-2.6
		c0.2-1,0.4-1.8,0.4-2.3c0-0.5,0.1-0.8,0.1-1c0-0.3-0.1-0.6-0.2-0.8c-0.2-0.2-0.4-0.4-0.6-0.5c-0.2-0.1-0.5-0.3-0.7-0.3
		c-0.3-0.1-0.5-0.1-0.7-0.2v-0.3h5.8v0.3C35.5,119.8,35.1,120,34.8,120.2z"/>
	<path class="st0" d="M52.4,143.8v-0.3c0.1,0,0.2,0,0.4-0.1c0.2,0,0.4-0.1,0.6-0.2c0.2-0.1,0.4-0.3,0.6-0.5c0.2-0.2,0.3-0.5,0.3-0.8
		c0-0.2,0-0.5-0.1-1c-0.1-0.5-0.2-1-0.4-1.7c-0.2-0.7-0.4-1.4-0.6-2.2c-0.2-0.8-0.5-1.7-0.7-2.5h-7.1c-0.3,0.9-0.5,1.7-0.8,2.4
		c-0.2,0.8-0.5,1.6-0.7,2.4c-0.4,1.2-0.6,2.1-0.6,2.6c0,0.3,0.1,0.5,0.2,0.7c0.1,0.2,0.3,0.4,0.5,0.5c0.2,0.1,0.5,0.2,0.7,0.3
		c0.3,0.1,0.5,0.1,0.7,0.2v0.3h-5.7v-0.4c0.5-0.1,0.9-0.2,1.2-0.5c0.3-0.2,0.5-0.4,0.6-0.5c0.1-0.2,0.3-0.5,0.6-1.1
		c0.3-0.6,0.6-1.5,1-2.6c0.4-1.1,0.8-2.3,1.2-3.6c0.5-1.4,0.9-2.7,1.4-4.2c0.5-1.4,1-2.9,1.4-4.3c0.5-1.5,0.9-2.8,1.4-4.1l-0.3-0.7
		c0.3-0.2,0.6-0.4,0.9-0.6c0.3-0.2,0.5-0.5,0.7-0.8c0.2-0.3,0.4-0.5,0.5-0.8c0.1-0.2,0.2-0.5,0.3-0.6h0.2c0.5,1.9,1.1,3.6,1.6,5.3
		c0.5,1.7,1,3.3,1.4,4.8c0.5,1.6,0.9,3.1,1.3,4.5c0.4,1.5,0.9,2.9,1.3,4.3c0.2,0.7,0.4,1.3,0.5,1.7c0.2,0.5,0.4,1,0.6,1.6
		c0,0.1,0.1,0.2,0.2,0.5c0.1,0.2,0.3,0.5,0.5,0.7c0.2,0.2,0.5,0.4,0.8,0.6c0.3,0.2,0.7,0.3,1.1,0.3v0.4H52.4z M48.9,123.3
		c-0.1,0.3-0.3,0.8-0.5,1.4c-0.2,0.6-0.5,1.4-0.8,2.3c-0.3,0.9-0.6,1.9-1,3.1c-0.4,1.1-0.8,2.4-1.2,3.7h6.6c-0.3-1-0.6-2-0.9-3
		c-0.3-1-0.6-2-0.9-2.9c-0.3-0.9-0.6-1.8-0.8-2.6C49.3,124.4,49.1,123.8,48.9,123.3z"/>
	<path class="st0" d="M66.2,143.8v-0.3c0.5-0.1,1-0.2,1.4-0.4c0.4-0.2,0.8-0.5,1.1-0.9c0.1-0.1,0.2-0.3,0.2-0.6
		c0-0.2,0.1-0.5,0.1-0.9c0-0.3,0.1-0.7,0.1-1.1c0-0.4,0-0.7,0-1.1c0-0.3,0-0.7,0-1.3c0-0.5,0-1.1,0-1.8c0-0.6,0-1.3,0-2
		c0-0.7,0-1.4,0-2v-6.6c0-0.4,0-0.8,0-1.2c0-0.4,0-0.8,0-1.1c0-0.3-0.1-0.7-0.1-0.9c-0.1-0.3-0.2-0.5-0.3-0.7
		c-0.3-0.4-0.6-0.7-1-0.8c-0.4-0.2-0.9-0.3-1.4-0.4v-0.3h9v0.3c-0.4,0.1-0.9,0.2-1.4,0.4c-0.5,0.2-0.9,0.5-1.1,1.1
		c-0.2,0.4-0.3,0.9-0.3,1.5c0,0.6,0,1.1,0,1.7c0,0.6,0,1.1,0,1.7c0,0.6,0,1.1,0,1.7c0,0.6,0,1.2,0,1.8c0,0.6,0,1.2,0,1.9v7.6
		c0,0.7,0,1.3,0,1.9c0,0.6,0.1,1,0.3,1.3c0.2,0.4,0.6,0.7,1.1,0.9c0.5,0.2,1,0.3,1.4,0.4v0.3H66.2z"/>
	<path class="st0" d="M105.5,125.8c-0.2-0.4-0.4-0.8-0.6-1.3c-0.2-0.4-0.4-0.9-0.7-1.2c-0.2-0.4-0.5-0.7-0.7-1.1
		c-0.2-0.3-0.4-0.6-0.6-0.7c-0.4-0.4-0.9-0.7-1.4-0.9c-0.5-0.1-1.1-0.2-1.9-0.3c-0.4,0-0.7,0-1,0c-0.3,0-0.6,0-0.8,0
		c-0.3,0-0.6,0-0.9,0c-0.3,0-0.7,0-1.1,0c0,0.6,0,1.3,0,2.3c0,1,0,2,0,3c0,1.1,0,2.1,0,3.1c0,1,0,1.9,0,2.6v7.5c0,0.7,0,1.3,0,1.9
		s0.1,1,0.3,1.3c0.3,0.5,0.7,0.8,1.3,1c0.6,0.2,1.1,0.3,1.5,0.4v0.3h-9.8v-0.3c0.5-0.1,1-0.2,1.5-0.3c0.5-0.2,1-0.5,1.4-1.1
		c0.1-0.1,0.2-0.3,0.2-0.6c0-0.3,0.1-0.6,0.1-0.9c0-0.3,0-0.7,0.1-1.1c0-0.4,0-0.8,0-1.1c0-0.3,0-0.7,0-1.2c0-0.5,0-1.1,0-1.7
		c0-0.6,0-1.3,0-2c0-0.7,0-1.3,0-1.9v-11.2c-0.4,0-0.8,0-1.1,0c-0.3,0-0.6,0-0.9,0c-0.3,0-0.5,0-0.8,0c-0.3,0-0.6,0-1,0
		c-0.8,0-1.4,0.1-1.9,0.3c-0.5,0.2-1,0.5-1.4,0.9c-0.2,0.2-0.3,0.4-0.6,0.7c-0.2,0.3-0.4,0.7-0.7,1c-0.2,0.4-0.5,0.8-0.7,1.2
		c-0.2,0.4-0.4,0.8-0.5,1.2l-0.3-0.1l0.9-6.4c0.5,0.1,0.9,0.2,1.3,0.3c0.4,0.1,1,0.1,1.7,0.1c0.8,0,1.5,0,2.1,0.1c0.6,0,1.2,0,1.7,0
		s1.1,0,1.7,0c0.6,0,1.3,0,2,0c0.7,0,1.4,0,2,0c0.6,0,1.2,0,1.7,0c0.6,0,1.1,0,1.8,0c0.6,0,1.3,0,2.1,0c0.7,0,1.2-0.1,1.6-0.2
		c0.4-0.1,0.9-0.2,1.3-0.4l1,6.6L105.5,125.8z"/>
	<path class="st0" d="M131.4,143.8h-18.5v-0.3c0.5-0.1,1-0.2,1.4-0.4c0.4-0.2,0.8-0.5,1.1-0.8c0.1-0.1,0.2-0.3,0.2-0.6
		c0.1-0.3,0.1-0.6,0.2-0.9c0-0.3,0.1-0.7,0.1-1.1c0-0.4,0-0.7,0-1.1c0-0.3,0-0.7,0-1.3c0-0.5,0-1.1,0-1.8c0-0.6,0-1.3,0-2
		c0-0.7,0-1.4,0-2v-6.6c0-0.4,0-0.8,0-1.2c0-0.4,0-0.8-0.1-1.2c0-0.4-0.1-0.7-0.2-1c-0.1-0.3-0.2-0.5-0.3-0.7
		c-0.3-0.4-0.6-0.6-1-0.7c-0.3-0.1-0.8-0.2-1.3-0.3v-0.3h16.7l2.1,5.6l-0.3,0.2c-1.6-2.3-3.2-3.8-4.6-4.6c-0.3-0.2-1-0.3-1.9-0.5
		c-0.9-0.1-2.1-0.2-3.4-0.2c-0.4,0-0.9,0-1.3,0c-0.5,0-0.8,0.1-1,0.1c0,0.4-0.1,1.1-0.1,2.2c0,1.1,0,2.4,0,3.9c0,0.9,0,1.6,0,2.2
		c0,0.6,0,1.1,0,1.4c0,0.4,0,0.7,0,0.9c0,0.2,0,0.3,0,0.4c0.1,0,0.3,0,0.6,0s0.7,0,1,0c0.4,0,0.8-0.1,1.2-0.1c0.4,0,0.7-0.1,1-0.2
		c0.6-0.2,1.1-0.4,1.5-0.6c0.4-0.3,0.7-0.6,1-1c0.3-0.4,0.5-0.8,0.6-1.3c0.2-0.5,0.3-1.1,0.4-1.7h0.4v10.7h-0.4
		c-0.2-0.7-0.4-1.5-0.7-2.2c-0.3-0.8-0.7-1.3-1-1.7c-0.3-0.3-0.7-0.6-1.2-0.8c-0.5-0.2-1-0.3-1.6-0.4c-0.3,0-0.6,0-0.8-0.1
		c-0.2,0-0.4,0-0.6,0c-0.2,0-0.4,0-0.6,0c-0.2,0-0.5,0-0.8,0c0,0.3-0.1,0.8-0.1,1.4c0,0.6,0,1.2,0,1.9c0,0.3,0,0.6,0,1s0,0.8,0,1.1
		c0,0.4,0,0.7,0,1c0,0.3,0,0.6,0,0.8c0,0.7,0.1,1.4,0.1,2s0.2,1.1,0.3,1.4c0.2,0.3,0.6,0.5,1.3,0.7c0.7,0.1,1.4,0.2,2.2,0.2
		c0.3,0,0.8,0,1.3,0c0.5,0,1.1-0.1,1.7-0.2c0.6-0.1,1.2-0.3,1.8-0.5c0.5-0.3,1.1-0.6,1.6-1.1c0.5-0.5,1-1.1,1.5-1.7
		c0.5-0.7,1-1.5,1.5-2.5l0.3,0.1L131.4,143.8z"/>
	<path class="st0" d="M171.9,120.3c-0.4,0.3-0.6,0.5-0.7,0.5c-0.1,0.1-0.1,0.2-0.3,0.3c-0.1,0.1-0.2,0.4-0.4,0.6
		c-0.1,0.3-0.3,0.6-0.5,1.1c-0.2,0.4-0.4,1-0.7,1.6c-0.4,1.1-0.8,2.3-1.3,3.6c-0.5,1.3-1,2.7-1.5,4.1c-0.5,1.4-1,2.8-1.5,4.3
		c-0.5,1.4-1,2.8-1.4,4.1l-1.5,3.4h-0.4c-0.7-1.8-1.3-3.6-1.9-5.2c-0.6-1.7-1.1-3.3-1.7-4.8c-0.5-1.5-1.1-3-1.6-4.4
		c-0.5-1.4-1-2.9-1.5-4.3c-0.1-0.4-0.3-0.8-0.4-1.1c-0.1-0.3-0.2-0.6-0.3-0.9c-0.1-0.3-0.2-0.5-0.3-0.8c-0.1-0.2-0.2-0.5-0.3-0.8
		c-0.1-0.1-0.2-0.3-0.3-0.5c-0.1-0.2-0.3-0.4-0.5-0.6c-0.2-0.2-0.5-0.4-0.8-0.5c-0.3-0.1-0.7-0.2-1.1-0.3v-0.4h9v0.3
		c-0.1,0-0.3,0.1-0.5,0.1c-0.3,0-0.5,0.1-0.8,0.3c-0.3,0.1-0.5,0.3-0.7,0.5c-0.2,0.2-0.3,0.5-0.3,0.8c0,0.2,0.1,0.7,0.3,1.4
		c0.2,0.8,0.5,1.7,0.9,2.7c0.4,1.1,0.7,2.2,1.2,3.5c0.4,1.3,0.9,2.5,1.3,3.8c0.4,1.2,0.8,2.4,1.2,3.4c0.4,1.1,0.7,1.9,0.9,2.6
		c0.1-0.2,0.3-0.8,0.6-1.6c0.3-0.8,0.6-1.8,1-2.9c0.4-1.2,0.9-2.5,1.4-4c0.5-1.5,1-3,1.6-4.7c0.4-1.2,0.7-2.2,0.8-2.8
		c0.1-0.6,0.2-1.1,0.2-1.3c0-0.3-0.1-0.6-0.3-0.8c-0.2-0.2-0.5-0.4-0.8-0.6c-0.3-0.1-0.6-0.3-0.9-0.3c-0.3-0.1-0.6-0.1-0.9-0.2v-0.3
		h7v0.4C172.7,119.9,172.3,120,171.9,120.3z"/>
	<path class="st0" d="M179.9,143.8v-0.3c0.5-0.1,1-0.2,1.4-0.4c0.4-0.2,0.8-0.5,1.1-0.9c0.1-0.1,0.2-0.3,0.2-0.6
		c0.1-0.2,0.1-0.5,0.1-0.9c0-0.3,0.1-0.7,0.1-1.1c0-0.4,0-0.7,0-1.1c0-0.3,0-0.7,0-1.3c0-0.5,0-1.1,0-1.8c0-0.6,0-1.3,0-2
		c0-0.7,0-1.4,0-2v-6.6c0-0.4,0-0.8,0-1.2c0-0.4,0-0.8,0-1.1c0-0.3-0.1-0.7-0.1-0.9c-0.1-0.3-0.2-0.5-0.3-0.7
		c-0.3-0.4-0.6-0.7-1-0.8c-0.4-0.2-0.9-0.3-1.4-0.4v-0.3h9v0.3c-0.4,0.1-0.9,0.2-1.4,0.4c-0.5,0.2-0.9,0.5-1.1,1.1
		c-0.2,0.4-0.3,0.9-0.3,1.5c0,0.6,0,1.1,0,1.7c0,0.6,0,1.1,0,1.7c0,0.6,0,1.1,0,1.7c0,0.6,0,1.2,0,1.8c0,0.6,0,1.2,0,1.9v7.6
		c0,0.7,0,1.3,0,1.9c0,0.6,0.1,1,0.3,1.3c0.2,0.4,0.6,0.7,1.2,0.9c0.5,0.2,1,0.3,1.4,0.4v0.3H179.9z"/>
	<path class="st0" d="M213.1,140c-0.4,0.9-0.9,1.6-1.6,2.2c-0.7,0.6-1.5,1.1-2.5,1.4c-1,0.3-2,0.4-3.2,0.4c-1,0-1.8-0.1-2.5-0.2
		c-0.7-0.1-1.3-0.3-1.7-0.5c-0.5-0.2-0.8-0.4-1-0.5c-0.2-0.2-0.4-0.2-0.4-0.2c-0.1,0-0.2,0.1-0.4,0.4c-0.2,0.3-0.4,0.5-0.5,0.8h-0.3
		l-0.1-6.7h0.3c0.2,0.6,0.4,1.2,0.7,1.8c0.3,0.6,0.6,1.1,0.9,1.6c0.3,0.5,0.7,1,1.1,1.3c0.4,0.4,0.7,0.7,1.1,0.9s0.8,0.4,1.4,0.6
		c0.6,0.2,1.1,0.3,1.6,0.3c1.5,0,2.7-0.5,3.6-1.4c0.9-0.9,1.4-2.1,1.4-3.7c0-0.6-0.1-1.2-0.3-1.7c-0.2-0.5-0.4-0.9-0.7-1.2
		c-0.3-0.3-0.7-0.6-1.1-0.9c-0.4-0.2-0.9-0.5-1.4-0.7c-0.5-0.2-0.9-0.4-1.3-0.5c-0.4-0.1-0.7-0.3-1-0.4c-0.3-0.1-0.6-0.2-1-0.4
		c-0.3-0.1-0.7-0.3-1.2-0.5c-0.5-0.2-1-0.5-1.5-0.9c-0.5-0.4-0.9-0.9-1.3-1.4c-0.4-0.5-0.7-1.1-0.9-1.8c-0.2-0.6-0.3-1.3-0.3-2
		c0-1.2,0.2-2.3,0.6-3.1c0.4-0.9,0.9-1.6,1.6-2.2c0.7-0.6,1.4-1,2.3-1.3c0.9-0.3,1.8-0.4,2.8-0.4c0.9,0,1.7,0.1,2.3,0.3
		c0.6,0.2,1.2,0.4,1.6,0.6c0.4,0.2,0.7,0.4,0.9,0.6c0.2,0.2,0.3,0.3,0.3,0.3c0.1,0,0.2-0.1,0.4-0.4c0.2-0.3,0.4-0.5,0.5-0.8h0.3v6.3
		h-0.3c-0.2-0.7-0.6-1.5-0.9-2.2c-0.4-0.7-0.8-1.4-1.3-2c-0.5-0.6-1.1-1-1.7-1.4c-0.6-0.4-1.4-0.5-2.1-0.5c-0.6,0-1.2,0.1-1.8,0.3
		c-0.6,0.2-1,0.5-1.4,0.9c-0.4,0.4-0.7,0.9-1,1.5c-0.2,0.6-0.3,1.3-0.3,2c0,1.2,0.3,2.2,1,2.9c0.6,0.7,1.5,1.3,2.5,1.7
		c0.4,0.2,0.8,0.3,1.1,0.5c0.3,0.1,0.7,0.3,1,0.4c0.3,0.1,0.7,0.3,1,0.4c0.4,0.1,0.7,0.3,1.1,0.4c1.4,0.6,2.4,1.4,3.2,2.5
		c0.8,1.1,1.1,2.4,1.1,4C213.6,138.2,213.4,139.2,213.1,140z"/>
	<path class="st0" d="M222.7,143.8v-0.3c0.5-0.1,1-0.2,1.4-0.4c0.4-0.2,0.8-0.5,1.1-0.9c0.1-0.1,0.2-0.3,0.2-0.6
		c0.1-0.2,0.1-0.5,0.1-0.9c0-0.3,0.1-0.7,0.1-1.1c0-0.4,0-0.7,0-1.1c0-0.3,0-0.7,0-1.3c0-0.5,0-1.1,0-1.8c0-0.6,0-1.3,0-2
		c0-0.7,0-1.4,0-2v-6.6c0-0.4,0-0.8,0-1.2c0-0.4,0-0.8,0-1.1c0-0.3-0.1-0.7-0.1-0.9c-0.1-0.3-0.2-0.5-0.3-0.7
		c-0.3-0.4-0.6-0.7-1-0.8c-0.4-0.2-0.9-0.3-1.4-0.4v-0.3h9v0.3c-0.4,0.1-0.9,0.2-1.4,0.4c-0.5,0.2-0.9,0.5-1.1,1.1
		c-0.2,0.4-0.3,0.9-0.3,1.5c0,0.6,0,1.1,0,1.7c0,0.6,0,1.1,0,1.7c0,0.6,0,1.1,0,1.7c0,0.6,0,1.2,0,1.8c0,0.6,0,1.2,0,1.9v7.6
		c0,0.7,0,1.3,0,1.9c0,0.6,0.1,1,0.3,1.3c0.2,0.4,0.6,0.7,1.2,0.9c0.5,0.2,1,0.3,1.4,0.4v0.3H222.7z"/>
	<path class="st0" d="M262.3,136.4c-0.6,1.5-1.4,2.9-2.5,4c-1,1.1-2.2,2-3.6,2.6c-1.4,0.6-2.8,0.9-4.4,0.9c-1.5,0-3-0.3-4.3-0.9
		c-1.4-0.6-2.6-1.4-3.6-2.5c-1-1.1-1.8-2.4-2.4-3.9c-0.6-1.5-0.9-3.2-0.9-5c0-1.9,0.3-3.7,0.9-5.2c0.6-1.5,1.5-2.9,2.5-3.9
		c1.1-1.1,2.3-1.9,3.7-2.5c1.4-0.6,2.9-0.9,4.5-0.9c1.7,0,3.2,0.3,4.6,1c1.4,0.7,2.5,1.6,3.5,2.7c0.9,1.1,1.7,2.5,2.2,3.9
		c0.5,1.5,0.8,3,0.8,4.7C263.2,133.2,262.9,134.9,262.3,136.4z M259,127.3c-0.3-1.4-0.8-2.7-1.4-3.8c-0.6-1.1-1.4-2.1-2.4-2.8
		c-0.9-0.7-2.1-1.1-3.4-1.1c-1.3,0-2.4,0.4-3.4,1.1c-1,0.7-1.7,1.6-2.4,2.8c-0.6,1.1-1.1,2.4-1.4,3.8c-0.3,1.4-0.4,2.9-0.4,4.3
		c0,1.5,0.2,3,0.5,4.4c0.3,1.4,0.8,2.7,1.4,3.8c0.6,1.1,1.4,2,2.4,2.6c1,0.7,2.1,1,3.3,1c1.3,0,2.4-0.4,3.3-1.1
		c0.9-0.7,1.7-1.7,2.3-2.8c0.6-1.1,1.1-2.4,1.4-3.8c0.3-1.4,0.5-2.8,0.5-4.3C259.4,130.1,259.3,128.7,259,127.3z"/>
	<path class="st0" d="M294.1,120.4c-0.5,0.3-0.8,0.8-1,1.5c-0.1,0.3-0.2,1-0.3,1.9c0,0.9-0.1,1.9-0.1,2.9c0,1-0.1,2.1-0.1,3.4
		c0,1.3,0,2.7,0,4.2c0,0.6,0,1.4,0,2.2c0,0.8,0,1.6,0,2.4c0,0.8,0,1.6,0,2.5s0,1.5,0,2.2c0,0.1,0,0.2-0.1,0.2
		c-0.1,0.1-0.1,0.1-0.2,0.1c-0.2,0-0.3-0.1-0.5-0.3c-1.7-2.2-3.3-4.2-4.7-6.1c-1.4-1.8-2.8-3.6-4-5.3c-1.3-1.7-2.5-3.3-3.8-4.9
		c-1.2-1.6-2.5-3.3-3.9-5v14.3c0,1.2,0,2.2,0.1,3.1c0,0.9,0.2,1.6,0.4,2.1c0.2,0.5,0.6,0.9,1,1.2c0.5,0.3,1.1,0.4,1.9,0.6v0.3h-7.4
		v-0.3c0.5-0.1,1-0.2,1.4-0.4c0.5-0.2,0.9-0.6,1.1-1.1c0.3-0.5,0.5-1.2,0.5-2.1c0.1-0.9,0.1-2,0.2-3.3c0-1,0.1-2.1,0.1-3.4
		c0-1.3,0-2.7,0-4.2c0-0.7,0-1.2,0-1.6c0-0.4,0-0.8,0-1.2c0-0.4,0-0.8,0-1.3c0-0.5,0-1,0-1.7c-0.1-0.7-0.2-1.2-0.4-1.6
		c-0.2-0.4-0.5-0.7-0.8-1c-0.3-0.2-0.6-0.4-1-0.5c-0.4-0.1-0.7-0.2-1-0.2v-0.3h6.1l14.3,18.7v-11.5c0-0.9,0-1.8,0-2.6
		c0-0.8-0.1-1.5-0.3-1.9c-0.2-0.6-0.6-1.1-1.1-1.5c-0.5-0.4-1.2-0.7-2.2-0.8v-0.3h7.5v0.3C295.1,119.9,294.5,120.1,294.1,120.4z"/>
</g>
<g>
	<g>
		<defs>
			<line id="SVGID_1_" x1="260.8" y1="113.3" x2="44.4" y2="113.3"/>
		</defs>
		<use xlink:href="#SVGID_1_"  style="overflow:visible;fill:#FFFFFF;"/>
		<clipPath id="SVGID_2_">
			<use xlink:href="#SVGID_1_"  style="overflow:visible;"/>
		</clipPath>
		<path class="st1" d="M44.4,113.3h216.4H44.4z"/>
		<path class="st1" d="M44.4,113.3h216.4H44.4z"/>
		<path class="st1" d="M44.4,113.3h216.4H44.4z"/>
		<path class="st1" d="M44.4,113.3h216.4H44.4z"/>
		<path class="st1" d="M44.4,113.3h216.4H44.4z"/>
		<path class="st1" d="M44.4,113.3h216.4H44.4z"/>
		<path class="st1" d="M44.4,113.3h216.4H44.4z"/>
		<path class="st1" d="M44.4,113.3h216.4H44.4z"/>
		<path class="st1" d="M44.4,113.3h216.4H44.4z"/>
		<path class="st1" d="M44.4,113.3h216.4H44.4z"/>
		<path class="st1" d="M44.4,113.3h216.4H44.4z"/>
		<path class="st1" d="M44.4,113.3h216.4H44.4z"/>
		<path class="st1" d="M44.4,113.3h216.4H44.4z"/>
		<path class="st1" d="M44.4,113.3h216.4H44.4z"/>
		<path class="st1" d="M44.4,113.3h216.4H44.4z"/>
		<path class="st1" d="M44.4,113.3h216.4H44.4z"/>
		<path class="st1" d="M44.4,113.3h216.4H44.4z"/>
		<path class="st1" d="M44.4,113.3h216.4H44.4z"/>
		<path class="st1" d="M44.4,113.3h216.4H44.4z"/>
		<path class="st1" d="M44.4,113.3h216.4H44.4z"/>
		<path class="st1" d="M44.4,113.3h216.4H44.4z"/>
		<path class="st1" d="M44.4,113.3h216.4H44.4z"/>
		<path class="st1" d="M44.4,113.3h216.4H44.4z"/>
		<path class="st1" d="M44.4,113.3h216.4H44.4z"/>
		<path class="st1" d="M44.4,113.3h216.4H44.4z"/>
		<path class="st1" d="M44.4,113.3h216.4H44.4z"/>
		<path class="st1" d="M44.4,113.3h216.4H44.4z"/>
		<path class="st1" d="M44.4,113.3h216.4H44.4z"/>
		<path class="st1" d="M44.4,113.3h216.4H44.4z"/>
		<path class="st1" d="M44.4,113.3h216.4H44.4z"/>
		<path class="st1" d="M44.4,113.3h216.4H44.4z"/>
		<path class="st1" d="M44.4,113.3h216.4H44.4z"/>
		<path class="st1" d="M44.4,113.3h216.4H44.4z"/>
		<path class="st1" d="M44.4,113.3h216.4H44.4z"/>
		<path class="st1" d="M44.4,113.3h216.4H44.4z"/>
		<path class="st1" d="M44.4,113.3h216.4H44.4z"/>
		<path class="st1" d="M44.4,113.3h216.4H44.4z"/>
		<path class="st1" d="M44.4,113.3h216.4H44.4z"/>
		<path class="st1" d="M44.4,113.3h216.4H44.4z"/>
		<path class="st1" d="M44.4,113.3h216.4H44.4z"/>
		<path class="st1" d="M44.4,113.3h216.4H44.4z"/>
		<path class="st1" d="M44.4,113.3h216.4H44.4z"/>
		<path class="st1" d="M44.4,113.3h216.4H44.4z"/>
		<path class="st1" d="M44.4,113.3h216.4H44.4z"/>
		<path class="st1" d="M44.4,113.3h216.4H44.4z"/>
		<path class="st1" d="M44.4,113.3h216.4H44.4z"/>
		<path class="st1" d="M44.4,113.3h216.4H44.4z"/>
		<path class="st1" d="M44.4,113.3h216.4H44.4z"/>
		<path class="st1" d="M44.4,113.3h216.4H44.4z"/>
		<path class="st1" d="M44.4,113.3h216.4H44.4z"/>
		<path class="st1" d="M44.4,113.3h216.4H44.4z"/>
		<path class="st1" d="M44.4,113.3h216.4H44.4z"/>
		<path class="st1" d="M44.4,113.3h216.4H44.4z"/>
	</g>
	<rect x="44.4" y="112.9" class="st0" width="216.4" height="0.7"/>
</g>
<g>
	<path class="st0" d="M161.2,12.9c0.5,0.1,1,0,1.3,0C162.1,12.9,161.7,12.9,161.2,12.9L161.2,12.9z"/>
	<path class="st0" d="M161.1,12.9c0.1,0,0.1,0,0.2,0h0.1c0.4,0,0.8,0,1.3,0c0.2,0,0.4,0,0.4,0s0,0-0.1,0c4.5,0.1,6.8,0.9,6.8,2.4
		l-0.3,1.1c-0.7,1.6-1.3,2.9-1.7,3.9c-1.9,5.2-3.7,9.6-5.3,13.4l1.9,4.5c0.2-0.5,0.4-1,0.6-1.5c2.6-6,4.4-10.3,5.5-12.8
		c2.4-6,4.1-9.3,5-9.7c2.1-1.1,5.1-1.6,9.2-1.6h2.3c1.5,0,2.3-0.4,2.3-1.3c0-0.9-1.1-1.4-3.2-1.4c-0.7,0-1.4,0-1.9,0.1
		c-4.7,0.3-8.7,0.4-12,0.4h-10.2C159.9,10.3,160.1,12.7,161.1,12.9z"/>
	<path class="st0" d="M218.1,10.6c-0.3-0.2-1.8-0.3-4.5-0.3h-10.8c-1.6,0-3.4-0.1-5.4-0.4c-0.9-0.1-2.1-0.2-3.7-0.2
		c-1.8,0-2.7,0.5-2.7,1.4c0,1,2.2,1.5,6.6,1.5c3.2,0,4.7,0.9,4.7,2.6c0,1.2-1.8,7.1-5.5,17.7C190.1,52.8,184.1,70,179,84.6
		c-2.8-7.5-6.3-16.4-10.6-26.9c-0.8-1.9-1.5-3.7-2.1-5.2l0,0l-0.3-0.8c-1-2.6-1.8-4.6-2.4-6.2l-2.9-7.4l-0.1-0.3
		c0,0.1-0.1,0.1-0.1,0.2c-0.6-1.8-1.2-3.5-1.7-5l-0.3-0.7l0,0c-4-11.7-6-17.6-6-17.7c0-1,1.6-1.6,4.9-1.8h0c0,0,0.1,0,0.1,0
		c1.7-0.1,1.1-2.4,0.1-2.5c0,0-0.1,0-0.1,0h-0.4h-10.3c-5.1,0-8.7-0.1-10.8-0.3c-2.1-0.2-3.8-0.3-5.3-0.3c-1.9,0-2.8,0.5-2.8,1.5
		c0,0.7,1.3,1.1,3.8,1.2c2.5,0.1,4.3,0.4,5.2,0.9c1,0.5,1.8,1.8,2.5,3.6l11.2,29l4.2,10.6c0,0,0-0.1,0-0.1c2.2,6,4.5,11.7,6.9,17.3
		c3,7.1,5.7,14.2,8.2,21.3c2,5.4,3.3,8.5,3.7,9.4c0.4,0.9,0.9,1.3,1.3,1.3c0.6,0,1-0.6,1.4-1.8c4.4-13.8,9.3-28.1,14.7-42.9
		c3.2-8.7,6.8-19.2,10.8-31.5c2.3-7,4.1-11.6,5.2-13.8c1.1-2.2,3.4-3.3,6.8-3.4c3.1-0.1,4.6-0.5,4.6-1.3
		C218.5,11.1,218.4,10.8,218.1,10.6z"/>
	<path class="st0" d="M139.3,85.3c-16.6-44.5-24.9-67.9-24.9-70.5c0-1.3,2.8-2,8.3-2.2c2.8-0.1,4.2-0.6,4.2-1.7
		c0-0.8-0.8-1.2-2.3-1.2h-1.5c-4.2,0-7.7,0.1-10.3,0.3c-2.7,0.2-4.5,0.3-5.6,0.3c-5.5,0-10.6-0.1-15.4-0.4c-0.5-0.1-1-0.1-1.6-0.1
		c-1.4,0-2.2,0.4-2.2,1.2c0,1.1,2.2,1.7,6.5,1.9c2.5,0.1,4.1,0.6,4.7,1.4c0.6,0.9,1.6,3,2.8,6.4c17.9,48.6,28.3,76.2,31.1,82.9
		c0.6,1.5,1.2,2.3,1.6,2.3c0.5,0,1-0.5,1.4-1.6c5.4-14.5,10.9-28.5,16.4-42l-2-5.2C147.8,64.1,144,73.5,139.3,85.3z"/>
</g>
</svg>
