<?xml version="1.0" encoding="utf-8"?>
<!-- Generator: Adobe Illustrator 22.0.1, SVG Export Plug-In . SVG Version: 6.00 Build 0)  -->
<!DOCTYPE svg PUBLIC "-//W3C//DTD SVG 1.1//EN" "http://www.w3.org/Graphics/SVG/1.1/DTD/svg11.dtd">
<svg version="1.1" id="Layer_1" xmlns="http://www.w3.org/2000/svg" xmlns:xlink="http://www.w3.org/1999/xlink" x="0px" y="0px"
	 viewBox="0 0 568 255.5" style="enable-background:new 0 0 568 255.5;" xml:space="preserve">
<style type="text/css">
	.st0{fill:#FFFFFF;}
</style>
<g>
	<g>
		<path class="st0" d="M281.9,40.8c-8.4,28.4-32.9,15.7-13.7-19.1c28.6-47.5,86.2,30.3,132.4,1.5c-40.1,45.5-103.2-31.7-128.2,1.7
			C263.3,32.6,260.4,70.8,281.9,40.8L281.9,40.8z M240.1,79c-4.3,2.4-7.9,4.6-10.9,6.8c2.7-8.6,5.9-14.2,10.9-13.2
			c14.4,1.7,20.1-2.2,20.7-9.4c-3.3,5.4-10.8,6.7-22.6,4.1c-9.1-1.5-13,9.8-16,24.4c-8.1,8.1-7.7,15-4.3,22.1
			c-2.1,10-4.8,19.5-9.3,26.1c5.2-4.9,8.9-12.9,11.7-21.7c5.4,8.9,13.8,18.5,15.3,31.5c-3.6,38.2-26.3,46.6-13.9,102.4
			c-0.5-69,23.3-70.7,24.5-101.6c4.1-18.1-21.9-32.7-20.8-50.5c0.6-2.2,1.1-4.4,1.7-6.5C229.1,88.9,233.1,84.1,240.1,79z"/>
		<path class="st0" d="M17.2,123.2c3,0,6.1-0.5,8.9-2.3c4-2.6,5.3-6.5,5.3-9.7c0-5.3-2.4-9.2-9.2-14.3l-1.6-1.2
			c-4.6-3.5-5.9-5.5-5.9-8.1c0-3.4,2.5-5.8,6.7-5.8c3.6,0,5.3,1.7,6.1,2.7c1.2,1.5,1.5,3.2,1.5,3.7c0,0.7,0.2,1,0.6,1
			c0.4,0,0.6-0.4,0.6-1.7c0-4.4,0.2-6,0.2-6.7c0-0.4-0.3-0.6-0.8-0.7c-1.5-0.4-3.8-1-7.4-1c-7.8,0-12.9,4.4-12.9,10.6
			c0,4.5,2.1,8.4,8.3,13.3l2.6,2c4.6,3.6,5.5,6.2,5.5,8.9c0,3-2.5,6.4-7.5,6.4c-3.5,0-6.8-1.5-8-5.6c-0.3-1-0.5-2.1-0.5-2.9
			c0-0.4-0.1-1-0.6-1c-0.4,0-0.6,0.6-0.7,1.5c-0.1,0.9-0.3,4.3-0.3,7.3c0,1.2,0.2,1.5,1.1,1.9C11.5,122.8,14,123.2,17.2,123.2
			L17.2,123.2z M49.9,106.2c0,5.1,0,9.6-0.3,11.9c-0.2,1.6-0.5,2.9-1.6,3.1c-0.5,0.1-1.2,0.2-2,0.2c-0.7,0-0.9,0.2-0.9,0.4
			c0,0.4,0.4,0.6,1.1,0.6c1.1,0,2.6-0.1,3.9-0.1c1.3-0.1,2.6-0.1,3.2-0.1c1.7,0,3.4,0.1,5.8,0.2c2.4,0.1,5.5,0.2,9.7,0.2
			c2.1,0,2.6,0,3-1.5c0.3-1.1,0.7-4.9,0.7-6.2c0-0.6,0-1-0.4-1c-0.4,0-0.5,0.2-0.6,0.8c-0.4,2.3-1.1,3.5-2.5,4.1
			c-1.5,0.7-3.8,0.7-5.3,0.7c-5.7,0-6.6-0.8-6.7-4.7c-0.1-1.6,0-6.8,0-8.7v-4.4c0-0.3,0.1-0.6,0.3-0.6c1.3,0,6.9,0.1,7.9,0.2
			c2.1,0.2,2.9,1.1,3.1,2.2c0.2,0.7,0.2,1.5,0.2,2c0,0.3,0.1,0.5,0.5,0.5c0.5,0,0.5-0.6,0.5-1.1c0-0.4,0.2-2.6,0.2-3.7
			c0.2-2.9,0.4-3.7,0.4-4.1c0-0.3-0.2-0.4-0.4-0.4c-0.3,0-0.5,0.3-0.9,0.7c-0.5,0.6-1.3,0.7-2.7,0.8c-1.3,0.1-7.7,0.1-8.9,0.1
			c-0.3,0-0.4-0.2-0.4-0.6V83.7c0-0.4,0.1-0.6,0.4-0.6c1.1,0,7,0.1,7.9,0.2c2.8,0.3,3.4,1,3.7,2c0.3,0.7,0.3,1.6,0.3,2
			c0,0.5,0.1,0.8,0.5,0.8c0.4,0,0.5-0.3,0.6-0.6c0.1-0.7,0.2-3.1,0.3-3.7c0.2-2.6,0.4-3.2,0.4-3.6c0-0.3-0.1-0.5-0.3-0.5
			c-0.3,0-0.6,0.2-0.9,0.2c-0.4,0.1-1.3,0.2-2.4,0.3c-1.1,0.1-12.2,0.1-14,0.1c-0.8,0-2.1-0.1-3.5-0.1c-1.4,0-3-0.1-4.5-0.1
			c-0.8,0-1.2,0.1-1.2,0.5c0,0.4,0.3,0.5,1,0.5c0.8,0,1.7,0.1,2.2,0.2c1.8,0.4,2.3,1.3,2.4,3.2c0.1,1.8,0.1,3.4,0.1,11.9V106.2
			L49.9,106.2z M97.8,106.2c0,5.1,0,9.6-0.3,11.9c-0.2,1.6-0.5,2.9-1.6,3.1c-0.5,0.1-1.2,0.2-2,0.2c-0.7,0-0.9,0.2-0.9,0.4
			c0,0.4,0.4,0.6,1.1,0.6c2.2,0,5.8-0.2,7-0.2c1.6,0,5.1,0.2,8.8,0.2c0.6,0,1.1-0.2,1.1-0.6c0-0.3-0.3-0.4-0.9-0.4
			c-0.8,0-2.1-0.1-2.9-0.2c-1.7-0.2-2-1.5-2.2-3c-0.3-2.4-0.3-6.8-0.3-12V83.3l7,0.2c5,0.1,6.5,1.7,6.6,3.1l0.1,0.6
			c0.1,0.8,0.2,1.1,0.6,1.1c0.3,0,0.4-0.3,0.5-0.9c0-1.5,0.2-5.3,0.2-6.5c0-0.8-0.1-1.2-0.4-1.2c-0.2,0-0.7,0.1-1.5,0.3
			c-0.8,0.1-2.1,0.3-3.9,0.3H91.8c-1.8,0-4-0.1-5.6-0.3c-1.4-0.1-2-0.7-2.4-0.7c-0.3,0-0.5,0.3-0.7,1.1C83,80.9,82,85.9,82,86.8
			c0,0.6,0.1,0.9,0.5,0.9c0.3,0,0.5-0.2,0.6-0.7c0.1-0.4,0.4-1.1,1-2c0.8-1.2,2.2-1.5,5.4-1.6l8.3-0.2V106.2L97.8,106.2z
			 M142.7,106.2c0,5.1,0,9.6-0.3,11.9c-0.2,1.6-0.5,2.9-1.6,3.1c-0.5,0.1-1.2,0.2-2,0.2c-0.7,0-0.9,0.2-0.9,0.4
			c0,0.4,0.4,0.6,1.1,0.6c2.2,0,5.8-0.2,7-0.2c1.6,0,5.1,0.2,8.8,0.2c0.6,0,1.1-0.2,1.1-0.6c0-0.3-0.3-0.4-0.9-0.4
			c-0.8,0-2.1-0.1-2.9-0.2c-1.7-0.2-2-1.5-2.2-3c-0.3-2.4-0.3-6.8-0.3-12V83.3l7,0.2c5,0.1,6.5,1.7,6.6,3.1l0.1,0.6
			c0.1,0.8,0.2,1.1,0.6,1.1c0.3,0,0.4-0.3,0.5-0.9c0-1.5,0.2-5.3,0.2-6.5c0-0.8-0.1-1.2-0.4-1.2c-0.2,0-0.7,0.1-1.5,0.3
			c-0.8,0.1-2.1,0.3-3.9,0.3h-22.1c-1.8,0-4-0.1-5.6-0.3c-1.4-0.1-2-0.7-2.4-0.7c-0.3,0-0.5,0.3-0.7,1.1c-0.1,0.4-1.2,5.5-1.2,6.4
			c0,0.6,0.1,0.9,0.5,0.9c0.3,0,0.5-0.2,0.6-0.7c0.1-0.4,0.4-1.1,1-2c0.8-1.2,2.2-1.5,5.4-1.6l8.3-0.2V106.2L142.7,106.2z
			 M186.7,112.5c0,0.9,0,3.2-0.2,5.6c-0.1,1.6-0.6,2.9-1.7,3.1c-0.5,0.1-1.2,0.2-2,0.2c-0.6,0-0.9,0.2-0.9,0.4
			c0,0.4,0.4,0.6,1.2,0.6c2.1,0,5.6-0.2,7-0.2c1.5,0,5,0.2,8.6,0.2c0.7,0,1.2-0.2,1.2-0.6c0-0.3-0.3-0.4-0.9-0.4
			c-0.8,0-2-0.1-2.8-0.2c-1.7-0.2-2.2-1.5-2.3-3.1c-0.2-2.3-0.2-4.7-0.2-5.6v-4.6c0-1.8,0-3.6,0.8-5.6c1-2.4,8.8-15.5,10.7-17.8
			c1.2-1.5,1.8-2.2,3-2.7c0.8-0.4,1.9-0.7,2.5-0.7c0.6,0,1.1-0.2,1.1-0.6c0-0.3-0.4-0.4-1-0.4c-1.1,0-4.8,0.2-6,0.2
			c-1.6,0-3.4-0.2-5.3-0.2c-0.7,0-1,0.1-1,0.5c0,0.3,0.5,0.4,1,0.6c1,0.2,1.2,0.8,1.2,1.4c0,0.7-0.2,1.7-0.8,2.9
			c-0.8,1.7-7.8,14-8.4,15.4c-0.9-1.6-8.7-15-9.5-16.7c-0.4-0.8-0.7-1.5-0.7-1.9c0-0.4,0.3-0.9,0.8-1c0.8-0.2,1.2-0.3,1.2-0.6
			c0-0.3-0.3-0.5-0.8-0.5c-2.5,0-4.8,0.2-6,0.2c-1.8,0-6-0.2-7-0.2c-0.7,0-1.1,0.2-1.1,0.5c0,0.4,0.4,0.5,0.8,0.5
			c0.7,0,1.6,0.3,2.3,0.7c1.1,0.6,2.5,2,3.9,4.1c2,2.9,9.5,15.2,9.8,16.1c0.7,1.6,1.3,2.9,1.3,5.9V112.5L186.7,112.5z M255.8,106.2
			c0,5.1,0,9.6-0.3,11.9c-0.2,1.6-0.5,2.9-1.6,3.1c-0.5,0.1-1.2,0.2-2,0.2c-0.7,0-0.9,0.2-0.9,0.4c0,0.4,0.4,0.6,1.1,0.6
			c2.2,0,5.8-0.2,7-0.2c1.5,0,5,0.2,8.7,0.2c0.6,0,1.1-0.2,1.1-0.6c0-0.3-0.3-0.4-0.9-0.4c-0.8,0-2.1-0.1-2.9-0.2
			c-1.7-0.2-2-1.5-2.2-3c-0.3-2.4-0.3-6.8-0.3-12V83.8c0-0.6,0.2-1,0.4-1.1c0.5-0.2,1.3-0.2,2.2-0.2c1.3,0,3.6,0.3,5.6,2.2
			c3.1,2.8,3.3,6.5,3.3,8.4c0,5.7-4.4,9.2-7.5,9.2c-1.2,0-1.6,0.2-1.6,0.6c0,0.4,0.4,0.4,0.7,0.5c0.3,0.1,0.9,0.1,1.2,0.1
			c7.9,0,13.8-5.6,13.8-13.5c0-3-1.6-5.5-2.8-6.7c-0.9-0.8-3.4-3.2-10.4-3.2c-2.6,0-5.8,0.2-8.1,0.2c-1.6,0-5.1-0.2-8.1-0.2
			c-0.8,0-1.2,0.1-1.2,0.5c0,0.4,0.3,0.5,1,0.5c0.8,0,1.7,0.1,2.2,0.2c1.8,0.4,2.3,1.3,2.4,3.2c0.1,1.8,0.1,3.4,0.1,11.9V106.2
			L255.8,106.2z M304.6,96.4c0-8.5,0-10.1,0.1-11.9c0.1-2,0.6-2.9,2.1-3.2c0.7-0.1,1.6-0.2,2.2-0.2c0.7,0,1-0.1,1-0.5
			c0-0.4-0.4-0.5-1.2-0.5c-2.2,0-6.3,0.2-7.6,0.2c-1.5,0-5-0.2-7.7-0.2c-0.8,0-1.2,0.1-1.2,0.5c0,0.4,0.3,0.5,1,0.5
			c0.7,0,1.4,0.1,1.8,0.2c1.8,0.4,2.3,1.3,2.4,3.2c0.1,1.8,0.1,3.4,0.1,11.9v9.8c0,5.1,0,9.6-0.3,11.9c-0.2,1.6-0.5,2.9-1.6,3.1
			c-0.5,0.1-1.2,0.2-2,0.2c-0.7,0-0.9,0.2-0.9,0.4c0,0.4,0.4,0.6,1.1,0.6c1.1,0,2.6-0.1,3.9-0.1c1.3-0.1,2.6-0.1,3.2-0.1
			c2.3,0,4.3,0.1,6.8,0.2c2.5,0.1,5.4,0.2,9.5,0.2c2.9,0,3.2-0.3,3.5-1.5c0.4-1.6,0.8-5.8,0.8-6.4c0-0.7-0.1-1-0.4-1
			c-0.4,0-0.6,0.3-0.6,0.8c-0.1,1.1-0.8,2.6-1.5,3.4c-1.4,1.5-3.6,1.6-6.5,1.6c-4.4,0-5.8-0.4-6.8-1.2c-1.2-1-1.2-4.9-1.2-12V96.4
			L304.6,96.4z M352.5,107.8c0.3,0,0.4,0.1,0.6,0.4l4.5,11.9c0.3,0.7-0.1,1.2-0.5,1.3c-0.6,0.1-0.8,0.2-0.8,0.5
			c0,0.4,0.7,0.4,1.7,0.4c4.5,0.1,8.6,0.1,10.6,0.1c2.1,0,2.6-0.1,2.6-0.6c0-0.4-0.3-0.4-0.7-0.4c-0.7,0-1.5-0.1-2.3-0.2
			c-1.2-0.3-2.8-1.1-4.9-6.1c-3.6-8.5-12.5-31.3-13.9-34.4c-0.6-1.3-0.9-1.8-1.4-1.8c-0.6,0-0.9,0.6-1.6,2.2l-14,35.1
			c-1.1,2.8-2.2,4.7-4.8,5c-0.4,0.1-1.2,0.1-1.7,0.1c-0.4,0-0.7,0.1-0.7,0.4c0,0.4,0.3,0.6,1.1,0.6c2.9,0,6-0.2,6.6-0.2
			c1.7,0,4.1,0.2,5.9,0.2c0.6,0,1-0.1,1-0.6c0-0.3-0.2-0.4-0.8-0.4h-0.8c-1.7,0-2.2-0.7-2.2-1.7c0-0.7,0.3-2,0.8-3.4l3-8
			c0.1-0.3,0.2-0.4,0.5-0.4H352.5L352.5,107.8z M341.1,105c-0.2,0-0.3-0.2-0.2-0.4l5.1-13.8c0.1-0.2,0.2-0.5,0.3-0.5
			c0.2,0,0.2,0.3,0.3,0.5l5,13.8c0.1,0.2,0,0.3-0.3,0.3H341.1L341.1,105z M386.6,123.2c3,0,6.1-0.5,8.9-2.3c4-2.6,5.3-6.5,5.3-9.7
			c0-5.3-2.4-9.2-9.2-14.3l-1.6-1.2c-4.6-3.5-5.9-5.5-5.9-8.1c0-3.4,2.5-5.8,6.7-5.8c3.6,0,5.3,1.7,6.1,2.7c1.2,1.5,1.5,3.2,1.5,3.7
			c0,0.7,0.2,1,0.6,1c0.4,0,0.6-0.4,0.6-1.7c0-4.4,0.2-6,0.2-6.7c0-0.4-0.3-0.6-0.8-0.7c-1.5-0.4-3.8-1-7.4-1
			c-7.8,0-12.9,4.4-12.9,10.6c0,4.5,2.1,8.4,8.3,13.3l2.6,2c4.6,3.6,5.5,6.2,5.5,8.9c0,3-2.5,6.4-7.5,6.4c-3.5,0-6.8-1.5-8-5.6
			c-0.3-1-0.5-2.1-0.5-2.9c0-0.4-0.1-1-0.6-1c-0.4,0-0.6,0.6-0.7,1.5c-0.1,0.9-0.3,4.3-0.3,7.3c0,1.2,0.2,1.5,1.1,1.9
			C380.9,122.8,383.4,123.2,386.6,123.2L386.6,123.2z M426.7,106.2c0,5.1,0,9.6-0.3,11.9c-0.2,1.6-0.5,2.9-1.6,3.1
			c-0.5,0.1-1.2,0.2-2,0.2c-0.7,0-0.9,0.2-0.9,0.4c0,0.4,0.4,0.6,1.1,0.6c2.2,0,5.8-0.2,7-0.2c1.6,0,5.1,0.2,8.8,0.2
			c0.6,0,1.1-0.2,1.1-0.6c0-0.3-0.3-0.4-0.9-0.4c-0.8,0-2.1-0.1-2.9-0.2c-1.7-0.2-2-1.5-2.2-3c-0.3-2.4-0.3-6.8-0.3-12V83.3l7,0.2
			c5,0.1,6.5,1.7,6.6,3.1l0.1,0.6c0.1,0.8,0.2,1.1,0.6,1.1c0.3,0,0.4-0.3,0.5-0.9c0-1.5,0.2-5.3,0.2-6.5c0-0.8-0.1-1.2-0.4-1.2
			c-0.2,0-0.7,0.1-1.5,0.3c-0.8,0.1-2.1,0.3-3.9,0.3h-22.1c-1.8,0-4-0.1-5.6-0.3c-1.4-0.1-2-0.7-2.4-0.7c-0.3,0-0.5,0.3-0.7,1.1
			c-0.1,0.4-1.2,5.5-1.2,6.4c0,0.6,0.1,0.9,0.5,0.9c0.3,0,0.5-0.2,0.6-0.7c0.1-0.4,0.4-1.1,1-2c0.8-1.2,2.2-1.5,5.4-1.6l8.3-0.2
			V106.2L426.7,106.2z M464.1,106.2c0,5.4,0,9.8-0.3,12.2c-0.2,1.6-0.5,2.6-1.6,2.8c-0.5,0.1-1.2,0.2-2,0.2c-0.7,0-0.9,0.2-0.9,0.4
			c0,0.4,0.4,0.6,1.1,0.6c2.2,0,5.8-0.2,7-0.2c1.5,0,5,0.2,8.7,0.2c0.6,0,1.1-0.2,1.1-0.6c0-0.3-0.3-0.4-0.9-0.4
			c-0.8,0-2.1-0.1-2.9-0.2c-1.7-0.2-2.1-1.2-2.2-2.7c-0.2-2.4-0.2-6.8-0.2-12.2v-9.8c0-8.5,0-10.1,0.1-11.9c0.1-2,0.6-2.9,2.1-3.2
			c0.7-0.1,1.1-0.2,1.7-0.2c0.6,0,0.9-0.1,0.9-0.6c0-0.3-0.4-0.4-1.2-0.4c-2.1,0-5.4,0.2-6.8,0.2c-1.6,0-5.1-0.2-7.3-0.2
			c-0.9,0-1.3,0.1-1.3,0.4c0,0.4,0.3,0.6,0.9,0.6c0.7,0,1.4,0.1,2,0.2c1.2,0.3,1.8,1.2,1.9,3.1c0.1,1.8,0.1,3.4,0.1,11.9V106.2
			L464.1,106.2z M514,123.2c3.6,0,7.8-0.4,10.1-1.3c1-0.4,1.2-0.7,1.5-1.6c0.6-1.9,1.2-6.8,1.2-7.4c0-0.4-0.1-0.8-0.5-0.8
			c-0.4,0-0.6,0.2-0.7,1.1c-0.2,1-1,2.6-1.9,3.7c-2.2,2.6-5.3,3.1-10.2,3.1c-7.5,0-17.6-6.6-17.6-19.9c0-5.4,1.1-10.7,5.1-14.5
			c2.5-2.2,5.6-3.5,10.5-3.5c5.1,0,9.5,1.5,11.4,3.5c1.4,1.5,2.1,3.4,2.2,5.1c0,0.8,0.1,1.2,0.6,1.2c0.5,0,0.6-0.4,0.7-1.3
			c0.1-1.1,0.1-4.2,0.2-6c0.1-2,0.3-2.6,0.3-3.1c0-0.3-0.2-0.6-0.8-0.7c-1.7-0.2-3.5-0.7-5.6-1c-2.6-0.3-4.6-0.6-8.1-0.6
			c-8.3,0-13.6,2.2-17.7,5.9c-5.4,4.9-6.5,11.5-6.5,15.3c0,5.4,1.5,11.7,6.9,16.5C499.9,121.5,506.4,123.2,514,123.2L514,123.2z
			 M549,123.2c3,0,6.1-0.5,8.9-2.3c4-2.6,5.3-6.5,5.3-9.7c0-5.3-2.4-9.2-9.2-14.3l-1.6-1.2c-4.6-3.5-5.9-5.5-5.9-8.1
			c0-3.4,2.5-5.8,6.7-5.8c3.6,0,5.3,1.7,6.1,2.7c1.2,1.5,1.5,3.2,1.5,3.7c0,0.7,0.2,1,0.6,1c0.4,0,0.6-0.4,0.6-1.7
			c0-4.4,0.2-6,0.2-6.7c0-0.4-0.3-0.6-0.8-0.7c-1.5-0.4-3.8-1-7.4-1c-7.8,0-12.9,4.4-12.9,10.6c0,4.5,2.1,8.4,8.3,13.3l2.6,2
			c4.6,3.6,5.5,6.2,5.5,8.9c0,3-2.5,6.4-7.5,6.4c-3.5,0-6.8-1.5-8-5.6c-0.3-1-0.5-2.1-0.5-2.9c0-0.4-0.1-1-0.6-1
			c-0.4,0-0.6,0.6-0.7,1.5c-0.1,0.9-0.3,4.3-0.3,7.3c0,1.2,0.2,1.5,1.1,1.9C543.3,122.8,545.8,123.2,549,123.2z"/>
		<path class="st0" d="M260.6,157.9c0,2.6,1.9,6.7,8.4,6.7c4.2,0,6.2-1.9,7.2-2.8c2.6,2,3.7,2.3,7.2,2.3h2.3c0.7,0,0.9-0.1,0.9-0.3
			c0-0.2-0.2-0.3-0.4-0.3c-0.6,0-2.3-0.5-3.2-1.1c-0.8-0.5-2.2-1.3-4.2-3c1.7-2,3-4.9,3-7.2c0-0.4-0.5-0.5-1-0.6
			c-1.7-0.2-2.9-0.2-3.6-0.2c-0.2,0-0.5,0.1-0.5,0.3c0,0.2,0.2,0.2,0.4,0.2c0.5,0,1.1,0.1,1.5,0.5c0.5,0.4,0.6,0.9,0.6,1.4
			c0,1.9-0.8,3.8-1.5,4.7c-0.6-0.5-4.3-3.9-5.3-5.1c-2.4-2.7-5-5.1-5-8c0-2.6,2-3.5,3.2-3.5c1.7,0,2.8,0.6,3.4,1.4
			c0.7,0.8,0.9,1.8,0.9,2.5c0,0.5,0,0.6,0.2,0.6c0.2,0,0.3-0.1,0.4-0.5c0.1-0.5,0.3-2.9,0.3-3.9c0-0.4,0-0.6-0.5-0.8
			c-0.8-0.3-2.2-0.6-3.7-0.6c-5.3,0-7.4,3.2-7.4,5.6c0,1.4,0.3,2.6,1.5,4.3C263.8,151.6,260.6,154.4,260.6,157.9L260.6,157.9z
			 M270.1,162.7c-3.2,0-5.8-2.4-5.8-6.2c0-2.4,1.1-3.9,2.1-4.6c0.5,0.8,2.5,2.9,3.2,3.8c0.8,0.8,3.7,3.7,5.5,5.2
			C274.4,161.5,272.4,162.7,270.1,162.7L270.1,162.7z M312.9,156.3c0.2,0,0.2,0.1,0.3,0.2l2.4,6.4c0.2,0.4-0.1,0.6-0.3,0.7
			c-0.3,0-0.4,0.1-0.4,0.3c0,0.2,0.4,0.2,0.9,0.2c2.4,0.1,4.6,0.1,5.7,0.1c1.1,0,1.4-0.1,1.4-0.3c0-0.2-0.2-0.2-0.4-0.2
			c-0.4,0-0.8,0-1.3-0.1c-0.6-0.2-1.5-0.6-2.7-3.3c-1.9-4.6-6.8-17-7.5-18.6c-0.3-0.7-0.5-1-0.8-1c-0.3,0-0.5,0.3-0.8,1.2l-7.6,19
			c-0.6,1.5-1.2,2.5-2.6,2.7c-0.2,0-0.7,0.1-0.9,0.1c-0.2,0-0.4,0.1-0.4,0.2c0,0.2,0.2,0.3,0.6,0.3c1.6,0,3.2-0.1,3.6-0.1
			c0.9,0,2.2,0.1,3.2,0.1c0.3,0,0.5-0.1,0.5-0.3c0-0.2-0.1-0.2-0.5-0.2H305c-0.9,0-1.2-0.4-1.2-0.9c0-0.4,0.2-1.1,0.5-1.9l1.6-4.3
			c0.1-0.2,0.1-0.2,0.3-0.2H312.9L312.9,156.3z M306.7,154.8c-0.1,0-0.2-0.1-0.1-0.2l2.8-7.5c0-0.1,0.1-0.3,0.2-0.3
			c0.1,0,0.1,0.2,0.2,0.3l2.7,7.5c0,0.1,0,0.2-0.2,0.2H306.7L306.7,154.8z M333,155.4c0,2.8,0,5.2-0.2,6.5c-0.1,0.9-0.3,1.5-0.9,1.7
			c-0.3,0.1-0.6,0.1-1.1,0.1c-0.4,0-0.5,0.1-0.5,0.2c0,0.2,0.2,0.3,0.6,0.3c0.6,0,1.4-0.1,2.1-0.1c0.7,0,1.4,0,1.7,0
			c0.9,0,1.9,0,3.2,0.1c1.3,0,3,0.1,5.2,0.1c1.2,0,1.4,0,1.6-0.8c0.2-0.6,0.4-2.7,0.4-3.4c0-0.3,0-0.5-0.2-0.5
			c-0.2,0-0.3,0.1-0.3,0.5c-0.2,1.2-0.6,1.9-1.4,2.2c-0.8,0.4-2.1,0.4-2.9,0.4c-3.1,0-3.6-0.5-3.6-2.5c0-0.9,0-3.7,0-4.7V153
			c0-0.2,0-0.3,0.2-0.3c0.7,0,3.7,0,4.3,0.1c1.1,0.1,1.5,0.6,1.7,1.2c0.1,0.4,0.1,0.8,0.1,1.1c0,0.2,0.1,0.3,0.3,0.3
			c0.3,0,0.3-0.3,0.3-0.6c0-0.2,0.1-1.4,0.1-2c0.1-1.5,0.2-2,0.2-2.2c0-0.2-0.1-0.2-0.2-0.2c-0.2,0-0.3,0.2-0.5,0.4
			c-0.3,0.3-0.7,0.4-1.5,0.5c-0.7,0.1-4.2,0.1-4.9,0.1c-0.2,0-0.2-0.1-0.2-0.3v-7.7c0-0.2,0.1-0.3,0.2-0.3c0.6,0,3.8,0.1,4.3,0.1
			c1.5,0.2,1.8,0.5,2,1.1c0.2,0.4,0.2,0.9,0.2,1.1c0,0.3,0.1,0.4,0.3,0.4c0.2,0,0.3-0.2,0.3-0.3c0.1-0.4,0.1-1.7,0.2-2
			c0.1-1.4,0.2-1.8,0.2-2c0-0.2,0-0.3-0.2-0.3c-0.2,0-0.3,0.1-0.5,0.1c-0.2,0.1-0.7,0.1-1.3,0.2c-0.6,0-6.6,0-7.6,0
			c-0.4,0-1.1,0-1.9-0.1c-0.8,0-1.6,0-2.5,0c-0.5,0-0.7,0.1-0.7,0.3c0,0.2,0.2,0.3,0.5,0.3c0.4,0,0.9,0,1.2,0.1
			c1,0.2,1.2,0.7,1.3,1.7c0.1,1,0.1,1.8,0.1,6.4V155.4L333,155.4z M361.7,164.6c1.6,0,3.3-0.3,4.8-1.2c2.2-1.4,2.9-3.5,2.9-5.3
			c0-2.9-1.3-5-5-7.7l-0.8-0.6c-2.5-1.9-3.2-3-3.2-4.4c0-1.8,1.4-3.1,3.6-3.1c2,0,2.9,0.9,3.3,1.5c0.6,0.8,0.8,1.7,0.8,2
			c0,0.4,0.1,0.5,0.3,0.5c0.2,0,0.3-0.2,0.3-0.9c0-2.4,0.1-3.2,0.1-3.6c0-0.2-0.2-0.3-0.4-0.4c-0.8-0.2-2.1-0.5-4-0.5
			c-4.2,0-7,2.4-7,5.7c0,2.5,1.2,4.6,4.5,7.2l1.4,1.1c2.5,2,3,3.4,3,4.9c0,1.6-1.3,3.5-4.1,3.5c-1.9,0-3.7-0.8-4.3-3.1
			c-0.2-0.5-0.3-1.2-0.3-1.5c0-0.2,0-0.5-0.3-0.5c-0.2,0-0.3,0.3-0.4,0.8c0,0.5-0.2,2.3-0.2,4c0,0.7,0.1,0.8,0.6,1
			C358.6,164.4,359.9,164.6,361.7,164.6L361.7,164.6z M387.4,155.4c0,2.8,0,5.2-0.2,6.5c-0.1,0.9-0.3,1.5-0.9,1.7
			c-0.3,0.1-0.6,0.1-1.1,0.1c-0.4,0-0.5,0.1-0.5,0.2c0,0.2,0.2,0.3,0.6,0.3c1.2,0,3.1-0.1,3.8-0.1c0.8,0,2.8,0.1,4.8,0.1
			c0.3,0,0.6-0.1,0.6-0.3c0-0.2-0.2-0.2-0.5-0.2c-0.5,0-1.1-0.1-1.5-0.1c-0.9-0.1-1.1-0.8-1.2-1.6c-0.2-1.3-0.2-3.7-0.2-6.5V143
			l3.8,0.1c2.7,0.1,3.5,0.9,3.6,1.7l0,0.3c0,0.5,0.1,0.6,0.3,0.6c0.2,0,0.2-0.2,0.3-0.5c0-0.8,0.1-2.9,0.1-3.5c0-0.5,0-0.6-0.2-0.6
			c-0.1,0-0.4,0.1-0.8,0.2c-0.5,0.1-1.1,0.2-2.1,0.2h-12c-1,0-2.2-0.1-3-0.2c-0.8-0.1-1.1-0.4-1.3-0.4c-0.2,0-0.3,0.2-0.4,0.6
			c-0.1,0.2-0.6,3-0.6,3.5c0,0.3,0.1,0.5,0.3,0.5c0.2,0,0.3-0.1,0.3-0.4c0.1-0.2,0.2-0.6,0.5-1.1c0.5-0.7,1.2-0.8,2.9-0.9l4.5-0.1
			V155.4L387.4,155.4z M415.7,150.9c-0.1,0-0.2-0.1-0.2-0.2v-0.6c0-4.6,0-5.5,0.1-6.4c0.1-1.1,0.3-1.6,1.1-1.7
			c0.4-0.1,0.6-0.1,0.9-0.1c0.4,0,0.5-0.1,0.5-0.3c0-0.2-0.2-0.3-0.6-0.3c-1.2,0-3.1,0.1-3.8,0.1c-0.8,0-2.7-0.1-4.4-0.1
			c-0.4,0-0.6,0.1-0.6,0.3c0,0.2,0.2,0.3,0.5,0.3c0.4,0,0.9,0,1.2,0.1c1,0.2,1.2,0.7,1.3,1.7c0.1,1,0.1,1.8,0.1,6.4v5.3
			c0,2.8,0,5.2-0.2,6.5c-0.1,0.9-0.3,1.5-0.9,1.7c-0.3,0.1-0.6,0.1-1.1,0.1c-0.4,0-0.5,0.1-0.5,0.2c0,0.2,0.2,0.3,0.6,0.3
			c1.2,0,3.1-0.1,3.8-0.1c0.8,0,2.8,0.1,4.7,0.1c0.4,0,0.6-0.1,0.6-0.3c0-0.2-0.2-0.2-0.5-0.2c-0.5,0-1.1-0.1-1.5-0.1
			c-0.9-0.1-1.1-0.8-1.2-1.6c-0.2-1.3-0.2-3.7-0.2-6.5v-2.7c0-0.2,0.1-0.2,0.2-0.2h11.6c0.1,0,0.2,0.1,0.2,0.2v2.7
			c0,2.8,0,5.2-0.2,6.5c-0.1,0.9-0.3,1.5-0.9,1.7c-0.3,0.1-0.6,0.1-1.1,0.1c-0.4,0-0.5,0.1-0.5,0.2c0,0.2,0.2,0.3,0.6,0.3
			c1.2,0,3.1-0.1,3.8-0.1c0.8,0,2.8,0.1,4.7,0.1c0.4,0,0.6-0.1,0.6-0.3c0-0.2-0.2-0.2-0.5-0.2c-0.5,0-1.1-0.1-1.5-0.1
			c-0.9-0.1-1.1-0.8-1.2-1.6c-0.2-1.3-0.2-3.7-0.2-6.5v-5.3c0-4.6,0-5.5,0.1-6.4c0.1-1.1,0.3-1.6,1.1-1.7c0.4-0.1,0.6-0.1,0.9-0.1
			c0.4,0,0.5-0.1,0.5-0.3c0-0.2-0.2-0.3-0.6-0.3c-1.2,0-3.1,0.1-3.8,0.1c-0.8,0-2.7-0.1-4.4-0.1c-0.4,0-0.6,0.1-0.6,0.3
			c0,0.2,0.2,0.3,0.5,0.3c0.4,0,0.9,0,1.2,0.1c1,0.2,1.2,0.7,1.3,1.7c0.1,1,0.1,1.8,0.1,6.4v0.6c0,0.2-0.1,0.2-0.2,0.2H415.7
			L415.7,150.9z M448,155.4c0,2.8,0,5.2-0.2,6.5c-0.1,0.9-0.3,1.5-0.9,1.7c-0.3,0.1-0.6,0.1-1.1,0.1c-0.4,0-0.5,0.1-0.5,0.2
			c0,0.2,0.2,0.3,0.6,0.3c0.6,0,1.4-0.1,2.1-0.1c0.7,0,1.4,0,1.7,0c0.9,0,1.9,0,3.2,0.1c1.3,0,3,0.1,5.2,0.1c1.2,0,1.4,0,1.6-0.8
			c0.2-0.6,0.4-2.7,0.4-3.4c0-0.3,0-0.5-0.2-0.5c-0.2,0-0.3,0.1-0.3,0.5c-0.2,1.2-0.6,1.9-1.4,2.2c-0.8,0.4-2.1,0.4-2.9,0.4
			c-3.1,0-3.6-0.5-3.6-2.5c0-0.9,0-3.7,0-4.7V153c0-0.2,0-0.3,0.2-0.3c0.7,0,3.7,0,4.3,0.1c1.1,0.1,1.5,0.6,1.7,1.2
			c0.1,0.4,0.1,0.8,0.1,1.1c0,0.2,0.1,0.3,0.3,0.3c0.3,0,0.3-0.3,0.3-0.6c0-0.2,0.1-1.4,0.1-2c0.1-1.5,0.2-2,0.2-2.2
			c0-0.2-0.1-0.2-0.2-0.2c-0.2,0-0.3,0.2-0.5,0.4c-0.3,0.3-0.7,0.4-1.5,0.5c-0.7,0.1-4.2,0.1-4.9,0.1c-0.2,0-0.2-0.1-0.2-0.3v-7.7
			c0-0.2,0.1-0.3,0.2-0.3c0.6,0,3.8,0.1,4.3,0.1c1.5,0.2,1.8,0.5,2,1.1c0.2,0.4,0.2,0.9,0.2,1.1c0,0.3,0.1,0.4,0.3,0.4
			c0.2,0,0.3-0.2,0.3-0.3c0.1-0.4,0.1-1.7,0.2-2c0.1-1.4,0.2-1.8,0.2-2c0-0.2,0-0.3-0.2-0.3c-0.2,0-0.3,0.1-0.5,0.1
			c-0.2,0.1-0.7,0.1-1.3,0.2c-0.6,0-6.6,0-7.6,0c-0.4,0-1.1,0-1.9-0.1c-0.8,0-1.6,0-2.5,0c-0.5,0-0.7,0.1-0.7,0.3
			c0,0.2,0.2,0.3,0.5,0.3c0.4,0,0.9,0,1.2,0.1c1,0.2,1.2,0.7,1.3,1.7c0.1,1,0.1,1.8,0.1,6.4V155.4L448,155.4z M478,155.4
			c0,2.8,0,5.2-0.2,6.5c-0.1,0.9-0.3,1.5-0.9,1.7c-0.3,0.1-0.6,0.1-1.1,0.1c-0.4,0-0.5,0.1-0.5,0.2c0,0.2,0.2,0.3,0.6,0.3
			c1.2,0,3.1-0.1,3.8-0.1c0.8,0,2.8,0.1,4.8,0.1c0.3,0,0.6-0.1,0.6-0.3c0-0.2-0.2-0.2-0.5-0.2c-0.5,0-1.1-0.1-1.5-0.1
			c-0.9-0.1-1.1-0.8-1.2-1.6c-0.2-1.3-0.2-3.7-0.2-6.5V143l3.8,0.1c2.7,0.1,3.5,0.9,3.6,1.7l0,0.3c0,0.5,0.1,0.6,0.3,0.6
			c0.2,0,0.2-0.2,0.3-0.5c0-0.8,0.1-2.9,0.1-3.5c0-0.5,0-0.6-0.2-0.6c-0.1,0-0.4,0.1-0.8,0.2c-0.5,0.1-1.1,0.2-2.1,0.2h-12
			c-1,0-2.2-0.1-3-0.2c-0.8-0.1-1.1-0.4-1.3-0.4c-0.2,0-0.3,0.2-0.4,0.6c-0.1,0.2-0.6,3-0.6,3.5c0,0.3,0.1,0.5,0.3,0.5
			c0.2,0,0.3-0.1,0.3-0.4c0.1-0.2,0.2-0.6,0.5-1.1c0.5-0.7,1.2-0.8,2.9-0.9l4.5-0.1V155.4L478,155.4z M502.3,155.4
			c0,2.9,0,5.3-0.2,6.6c-0.1,0.9-0.3,1.4-0.9,1.5c-0.3,0.1-0.6,0.1-1.1,0.1c-0.4,0-0.5,0.1-0.5,0.2c0,0.2,0.2,0.3,0.6,0.3
			c1.2,0,3.1-0.1,3.8-0.1c0.8,0,2.7,0.1,4.7,0.1c0.3,0,0.6-0.1,0.6-0.3c0-0.2-0.2-0.2-0.5-0.2c-0.5,0-1.1-0.1-1.5-0.1
			c-0.9-0.1-1.1-0.7-1.2-1.5c-0.1-1.3-0.1-3.7-0.1-6.6v-5.3c0-4.6,0-5.5,0.1-6.4c0.1-1.1,0.3-1.6,1.1-1.7c0.4-0.1,0.6-0.1,0.9-0.1
			c0.3,0,0.5-0.1,0.5-0.3c0-0.2-0.2-0.2-0.6-0.2c-1.2,0-2.9,0.1-3.7,0.1c-0.9,0-2.8-0.1-3.9-0.1c-0.5,0-0.7,0.1-0.7,0.2
			c0,0.2,0.2,0.3,0.5,0.3c0.4,0,0.8,0,1.1,0.1c0.7,0.2,1,0.7,1,1.7c0.1,1,0.1,1.8,0.1,6.4V155.4L502.3,155.4z M533.4,164.6
			c1.9,0,4.2-0.2,5.5-0.7c0.5-0.2,0.6-0.4,0.8-0.9c0.3-1,0.7-3.7,0.7-4c0-0.2-0.1-0.5-0.3-0.5c-0.2,0-0.3,0.1-0.4,0.6
			c-0.1,0.5-0.5,1.4-1,2c-1.2,1.4-2.9,1.7-5.6,1.7c-4.1,0-9.6-3.6-9.6-10.8c0-2.9,0.6-5.8,2.8-7.9c1.3-1.2,3.1-1.9,5.7-1.9
			c2.8,0,5.2,0.8,6.2,1.9c0.8,0.8,1.2,1.9,1.2,2.8c0,0.4,0.1,0.7,0.3,0.7c0.3,0,0.3-0.2,0.4-0.7c0.1-0.6,0-2.3,0.1-3.3
			c0.1-1.1,0.2-1.4,0.2-1.7c0-0.2-0.1-0.3-0.5-0.4c-0.9-0.1-1.9-0.4-3-0.5c-1.4-0.2-2.5-0.3-4.4-0.3c-4.5,0-7.4,1.2-9.6,3.2
			c-2.9,2.7-3.5,6.2-3.5,8.3c0,2.9,0.8,6.3,3.8,8.9C525.7,163.7,529.2,164.6,533.4,164.6L533.4,164.6z M556.3,164.6
			c1.6,0,3.3-0.3,4.8-1.2c2.2-1.4,2.9-3.5,2.9-5.3c0-2.9-1.3-5-5-7.7l-0.8-0.6c-2.5-1.9-3.2-3-3.2-4.4c0-1.8,1.4-3.1,3.6-3.1
			c2,0,2.9,0.9,3.3,1.5c0.6,0.8,0.8,1.7,0.8,2c0,0.4,0.1,0.5,0.3,0.5c0.2,0,0.3-0.2,0.3-0.9c0-2.4,0.1-3.2,0.1-3.6
			c0-0.2-0.2-0.3-0.4-0.4c-0.8-0.2-2.1-0.5-4-0.5c-4.2,0-7,2.4-7,5.7c0,2.5,1.2,4.6,4.5,7.2l1.4,1.1c2.5,2,3,3.4,3,4.9
			c0,1.6-1.3,3.5-4.1,3.5c-1.9,0-3.7-0.8-4.3-3.1c-0.2-0.5-0.3-1.2-0.3-1.5c0-0.2,0-0.5-0.3-0.5c-0.2,0-0.3,0.3-0.4,0.8
			c0,0.5-0.2,2.3-0.2,4c0,0.7,0.1,0.8,0.6,1C553.2,164.4,554.6,164.6,556.3,164.6z"/>
		<rect x="14.5" y="151.3" class="st0" width="199.6" height="2.5"/>
	</g>
</g>
</svg>
