<?xml version="1.0" encoding="utf-8"?>
<!-- Generator: Adobe Illustrator 22.1.0, SVG Export Plug-In . SVG Version: 6.00 Build 0)  -->
<!DOCTYPE svg PUBLIC "-//W3C//DTD SVG 1.1//EN" "http://www.w3.org/Graphics/SVG/1.1/DTD/svg11.dtd">
<svg version="1.1" id="Layer_1" xmlns="http://www.w3.org/2000/svg" xmlns:xlink="http://www.w3.org/1999/xlink" x="0px" y="0px"
	 viewBox="0 0 183.393 36.02" enable-background="new 0 0 183.393 36.02" xml:space="preserve">
<style type="text/css">
</style>
<g>
	<defs>
		<rect id="SVGID_1_" y="0" width="183.393" height="36.02"/>
	</defs>
	<clipPath id="SVGID_2_">
		<use xlink:href="#SVGID_1_"  overflow="visible"/>
	</clipPath>
	<path clip-path="url(#SVGID_2_)" fill="#FFF" d="M1.041,1.163C0.459,0.898,0.153,0.601,0.153,0.299
		c0-0.133,0.124-0.232,0.368-0.232h0.092l0.918,0.099h9.455c2.727,0,4.871,0.498,6.464,1.498c3.063,1.931,4.9,5.592,4.9,9.72
		c0,6.226-4.105,10.886-9.617,10.886H0.797C0.277,22.27,0,22.137,0,21.937s0.183-0.365,0.672-0.665
		c0.095-0.067,0.217-0.133,0.369-0.267V1.163z M11.048,18.042c3.859-0.032,6.463-2.729,6.463-6.791c0-2.962-1.716-5.659-4.044-6.391
		c-0.858-0.268-2.541-0.468-3.828-0.468H5.697v13.65H11.048z"/>
	<path clip-path="url(#SVGID_2_)" fill="#FFF" d="M28.058,13.88c0.155,1.866,0.37,2.663,0.928,3.429
		c0.651,0.901,1.703,1.398,2.941,1.398c1.361,0,2.073-0.364,3.499-1.762v-0.333c0-0.333,0.092-0.535,0.308-0.535
		c0.186,0,0.25,0.067,0.496,0.466c0.092,0.201,0.496,0.668,1.083,1.299c0.527,0.599,1.115,1.198,1.395,1.431
		c0.216,0.167,0.309,0.301,0.309,0.4c0,0.133-0.217,0.269-0.434,0.269c-0.062,0-0.247-0.034-0.495-0.068
		c-1.766,1.364-2.538,1.83-3.994,2.229c-0.898,0.234-1.795,0.366-2.723,0.366c-4.799,0-7.989-3.527-7.989-8.887
		c0-5.592,3.406-9.387,8.422-9.387c5.077,0,7.862,3.227,7.862,9.123v0.562H28.058z M34.899,10.918
		c-0.125-2.066-1.083-3.063-2.972-3.063c-1.827,0-2.941,0.933-3.56,3.063H34.899z"/>
	<path clip-path="url(#SVGID_2_)" fill="#FFF" d="M40.728,5.924c-0.65-0.266-0.991-0.531-0.991-0.864
		c0-0.166,0.094-0.234,0.279-0.234h0.279c0.156,0.035,0.465,0.035,0.929,0.035l1.61,0.063l2.104-0.063h0.157
		c0.431,0,0.557,0.063,0.557,0.264c0,0.2-0.126,0.301-0.496,0.434v1.63c2.229-2.064,3.591-2.729,5.634-2.729
		c2.168,0,4.304,1.165,5.108,2.762c0.465,0.932,0.712,2.197,0.712,3.663l0.032,10.319c0.65,0.199,0.897,0.433,0.897,0.833
		c0,0.233-0.03,0.266-0.247,0.266h-0.031h-0.527l-2.476-0.134c-0.403-0.032-1.269,0-2.571,0.067h-0.371
		c-0.217,0-0.309-0.067-0.309-0.266c0-0.299,0.092-0.4,1.114-1.031l0.032-8.29v-0.033c0-2.763-0.837-3.894-2.848-3.894
		c-2.29,0-4.149,1.729-4.149,3.927v8.422c0.928,0.499,1.084,0.633,1.084,0.933c0,0.165-0.094,0.266-0.311,0.266
		c-0.153,0-0.403-0.034-0.773-0.101c-0.496-0.032-1.178-0.066-1.982-0.066c-0.867,0-2.074,0.034-2.91,0.1h-0.155
		c-0.246,0-0.372-0.1-0.372-0.298c0-0.335,0.279-0.534,1.053-0.868L40.728,5.924z"/>
	<path clip-path="url(#SVGID_2_)" fill="#FFF" d="M59.229,4.993l0.092-3.928c-0.679-0.266-0.956-0.5-0.956-0.8
		C58.365,0.098,58.457,0,58.674,0h0.309c0.061,0,0.338,0.032,0.805,0.032l1.855,0.066l1.922-0.066h0.617C64.492,0,64.492,0,64.523,0
		c0.186,0,0.31,0.133,0.31,0.299c0,0.3-0.279,0.533-0.959,0.832L63.81,5.059l2.323,0.035c0.34-0.468,0.466-0.6,0.682-0.6
		c0.185,0,0.279,0.167,0.279,0.465v0.034l-0.03,0.566c-0.033,0.232-0.033,0.566-0.033,0.966c0,0.73,0,1.263,0.033,1.897
		c0,0.265-0.033,0.235-0.157,0.265c-0.308,0.035-0.527-0.133-0.65-0.465L63.75,8.255l-0.124,7.889v0.167
		c0,2.131,0.433,2.631,2.259,2.696c0.156-0.165,0.28-0.267,0.34-0.366c0.248-0.366,0.311-0.432,0.466-0.432
		c0.154,0,0.277,0.134,0.277,0.333c0,0.033,0,0.198-0.029,0.365c-0.032,0.134-0.032,0.366-0.032,0.734v1.165v0.166
		c0,0.099,0,0.331,0.032,0.732v0.166c0,0.334-0.094,0.466-0.279,0.466c-0.187,0-0.311-0.066-0.557-0.366
		c-1.549,0.3-1.951,0.333-2.88,0.333c-1.64,0-3.158-0.699-3.623-1.697c-0.34-0.698-0.495-1.733-0.495-2.932v-0.232l0.155-9.254
		h-1.021c-0.433,0.499-0.618,0.665-0.835,0.665c-0.124-0.098-0.185-0.065-0.185-0.299V8.523l0.029-0.735v-0.83V6.025V5.359V4.86
		V4.825c0-0.265,0.063-0.398,0.248-0.398c0.248,0,0.434,0.166,0.651,0.566H59.229z"/>
	<path clip-path="url(#SVGID_2_)" fill="#FFF" d="M71.282,9.321c0,0.665-0.155,1.032-0.433,1.032
		c-0.155,0-0.249-0.101-0.31-0.432c-0.031-0.135-0.124-0.335-0.248-0.633c-0.403-0.966-0.804-1.831-1.269-2.664
		c-0.094-0.2-0.155-0.332-0.155-0.4c0-0.167,0.155-0.3,0.402-0.3c0.154,0,0.279,0.067,0.527,0.201
		c2.941-1.431,4.117-1.733,6.502-1.733c4.21,0,6.595,2.167,6.595,6.028v0.133l-0.094,10.619c0.711,0.334,1.021,0.599,1.021,0.899
		c0,0.199-0.061,0.199-0.247,0.199h-0.187c-0.65-0.101-2.073-0.167-3.437-0.167c-0.649,0-0.896,0.034-1.144,0.066
		c-0.185,0.035-0.342,0.035-0.404,0.035c-0.184,0-0.308-0.133-0.308-0.299c0-0.068,0.031-0.168,0.124-0.399
		c0.061-0.135,0.092-0.367,0.124-0.7c-1.951,1.297-2.91,1.597-4.924,1.597c-3.561,0-5.82-2.029-5.82-5.226
		c0-1.565,0.743-3.13,1.858-3.961c1.796-1.3,3.714-1.731,8.886-1.964c-0.155-2.198-1.084-3.098-3.19-3.098
		c-1.083,0-1.486,0.135-3.869,1.066V9.321z M77.984,14.381c-3.87,0.299-6.192,1.365-6.192,2.929c0,0.932,0.711,1.466,1.888,1.466
		c1.27,0,2.166-0.267,4.304-1.166V14.381z"/>
	<path clip-path="url(#SVGID_2_)" fill="#FFF" d="M85.278,1.332c-0.62-0.201-0.959-0.468-0.959-0.8
		c0-0.2,0.123-0.333,0.309-0.333c0.06,0,0.278,0.032,0.434,0.066c0.278,0.101,1.144,0.133,2.568,0.133h0.186
		c0.619,0.035,1.145,0,1.641-0.066c0.249-0.033,0.466-0.033,0.589-0.033c0.185,0,0.309,0.099,0.309,0.266
		c0,0.265-0.185,0.533-0.557,0.867v19.872c0.744,0.201,0.992,0.4,0.992,0.833c0,0.133-0.094,0.166-0.311,0.166h-0.093
		c-0.155,0-0.371,0-0.619-0.033c-1.146-0.067-1.951-0.133-2.415-0.133c-0.434,0-1.114,0.032-2.012,0.099
		c-0.371,0.034-0.652,0.067-0.806,0.067c-0.215,0-0.31-0.1-0.31-0.232c0-0.299,0.218-0.5,0.651-0.699l0.372-0.167L85.278,1.332z"/>
	<path clip-path="url(#SVGID_2_)" fill="#FFF" d="M97.019,17.49l5.856-16.214c-0.474-0.366-0.64-0.597-0.57-0.931
		c0.051-0.233,0.074-0.199,0.235-0.233h0.152l0.416,0.067l0.966,0.066l1.646,0.035h0.703c0.951,0,2.244-0.035,2.687-0.101
		c0.122,0,0.284-0.033,0.314-0.033c0.184,0,0.254,0.099,0.219,0.266c-0.055,0.267-0.32,0.498-0.888,0.864l-0.641,16.479
		l7.181-16.445c-0.016-0.067-0.054-0.034-0.079-0.067c-0.495-0.265-0.713-0.531-0.651-0.831c0.079-0.233,0.134-0.201,0.264-0.233
		c0.093,0,0.244,0,0.421,0.032c0.776,0.1,1.564,0.134,2.4,0.1l2.059-0.031c0.369,0,0.649-0.035,0.772-0.035
		c0.13-0.034,0.214,0,0.283-0.034c0.184,0,0.287,0.1,0.243,0.301c-0.056,0.266-0.238,0.398-0.99,0.764
		c-0.038,0.034-0.098,0.034-0.167,0.067l-9.157,20.008c0.389,0.332,0.548,0.599,0.491,0.865c-0.027,0.134-0.133,0.2-0.41,0.2h-0.031
		h-0.122l-1.089-0.066c-0.728-0.034-2.473-0.034-3.698-0.034h-1.716c-0.221,0.034-0.282,0.034-0.344,0.034
		c-0.276,0-0.384-0.066-0.342-0.267c0.065-0.299,0.289-0.499,0.844-0.799l0.358-14.414l-5.095,14.348
		c0.353,0.366,0.495,0.699,0.446,0.931c-0.027,0.135-0.163,0.201-0.378,0.201h-0.031c-1.364-0.066-2.973-0.134-3.923-0.134
		c-0.397,0-1.417,0.034-3.085,0.1h-0.091h-0.032c-0.306,0-0.382-0.066-0.342-0.267c0.066-0.298,0.266-0.532,0.81-0.932L92.426,1.243
		c-0.587-0.265-0.838-0.531-0.775-0.831c0.043-0.201,0.187-0.3,0.462-0.3c0.062,0,0.307,0,0.545,0.034
		c0.561,0.099,1.258,0.134,2.085,0.134c0.674,0,1.354-0.035,2.005-0.069l0.872-0.065h0.183c0.245,0,0.346,0.099,0.311,0.266
		c-0.078,0.366-0.439,0.631-1.093,0.831L97.019,17.49z"/>
	<path clip-path="url(#SVGID_2_)" fill="#FFF" d="M133.629,13.329c-1.124,5.325-5.801,9.288-10.909,9.288
		c-5.14,0-8.202-3.963-7.093-9.221c1.099-5.193,5.844-9.189,10.888-9.189C131.717,4.207,134.739,8.069,133.629,13.329
		 M120.731,13.396c-0.648,3.062,0.733,5.325,3.239,5.325c2.601,0,4.854-2.165,5.521-5.325c0.676-3.197-0.649-5.128-3.467-5.128
		C123.548,8.268,121.364,10.399,120.731,13.396"/>
	<path clip-path="url(#SVGID_2_)" fill="#FFF" d="M136.031,5.806c-0.633-0.234-0.838-0.433-0.775-0.734
		c0.036-0.165,0.182-0.266,0.397-0.266c0.094,0,0.271,0.034,0.55,0.034c0.482,0.067,1.286,0.067,2.432,0.067
		c0.897,0,1.548,0,1.934-0.067h0.341c0.248,0,0.348,0.101,0.308,0.3c-0.058,0.265-0.248,0.432-0.667,0.666l-0.451,2.13
		c2.103-2.329,3.679-3.196,5.909-3.196c0.37,0,0.548,0.033,1.13,0.066c0.29-0.199,0.46-0.267,0.614-0.267
		c0.248,0,0.328,0.201,0.238,0.634c-0.014,0.068-0.064,0.299-0.186,0.733c-0.064,0.298-0.154,0.732-0.274,1.298
		c-0.183,0.864-0.317,1.498-0.371,1.897c-0.003,0.166-0.033,0.299-0.039,0.333c-0.063,0.3-0.191,0.466-0.345,0.466
		c-0.249,0-0.41-0.265-0.507-0.832c-0.608-0.2-0.847-0.233-1.437-0.233c-1.886,0-3.539,0.933-4.97,2.73
		c-0.214,0.266-0.468,0.598-0.724,0.932l-1.851,8.755c0.64,0.197,0.906,0.398,0.836,0.733c-0.043,0.199-0.148,0.267-0.366,0.267
		h-0.153c-1.613-0.135-2.59-0.202-2.908-0.168l-1.555,0.033c-0.401,0-0.656,0.033-0.78,0.033c-0.226,0.034-0.416,0.067-0.54,0.067
		c-0.156,0-0.251-0.133-0.216-0.299c0.078-0.367,0.444-0.633,1.228-0.832L136.031,5.806z"/>
	<path clip-path="url(#SVGID_2_)" fill="#FFF" d="M149.723,1.211c-0.539-0.233-0.738-0.467-0.682-0.732
		c0.042-0.199,0.156-0.299,0.341-0.299c0.094,0,0.241,0.031,0.451,0.066c0.365,0.034,1.651,0.1,2.889,0.1
		c0.745,0,0.991,0,1.346-0.066c0.254-0.034,0.41-0.034,0.502-0.034c0.217,0,0.289,0.1,0.253,0.267
		c-0.055,0.266-0.246,0.432-0.703,0.698l-1.984,9.39l5.419-4.696c-0.07-0.399-0.09-0.599-0.056-0.764
		c0.042-0.199,0.195-0.335,0.442-0.335c0.093,0,0.365,0.033,0.636,0.069c0.536,0.097,1.458,0.13,2.788,0.13l0.44-0.033
		c0.342,0,0.676,0.033,0.954,0.033c0.489,0.034,0.799,0.034,0.985,0.034h0.277l0.818-0.067h0.064c0.278,0,0.382,0.1,0.338,0.301
		c-0.056,0.266-0.353,0.499-0.915,0.664l-0.669,0.234l-5.311,4.196l2.863,10.918c0.971,0.233,1.294,0.467,1.209,0.865
		c-0.025,0.134-0.127,0.167-0.343,0.167h-0.032h-0.774l-0.858-0.033l-1.605-0.032c-0.239-0.035-0.424-0.035-0.579-0.035
		c-0.096,0-0.473,0.035-1.155,0.035c-0.44,0.032-0.718,0.032-0.847,0.065h-0.096c-0.308,0-0.412-0.1-0.378-0.266
		c0.05-0.233,0.18-0.4,0.56-0.732l-2.029-7.69l-3.329,2.562l-1.06,5.028c0.624,0.265,0.853,0.498,0.768,0.898
		c-0.035,0.167-0.066,0.167-0.189,0.167h-0.186c-1.186-0.1-2.349-0.167-3.555-0.167c-0.497,0-0.899,0-1.246,0.033l-0.918,0.102
		h-0.063c-0.248,0-0.326-0.068-0.293-0.235c0.045-0.199,0.204-0.366,0.678-0.567c0.14-0.065,0.345-0.165,0.621-0.3L149.723,1.211z"
		/>
	<path clip-path="url(#SVGID_2_)" fill="#FFF" d="M168.929,18.855c2.414,0,3.603-0.499,3.841-1.631
		c0.198-0.934-0.502-1.431-2.415-1.899c-2.403-0.497-3.536-0.997-4.351-1.83c-0.853-0.799-1.111-2.065-0.803-3.528
		c0.725-3.43,3.798-5.66,7.792-5.66c2.01,0,3.658,0.267,5.381,0.9c0.339-0.433,0.562-0.6,0.808-0.6c0.218,0,0.312,0.133,0.272,0.334
		c-0.023,0.098-0.082,0.233-0.171,0.365l-0.761,1.398c-0.096,0.167-0.266,0.534-0.497,1.033c-0.325,0.666-0.51,1.097-0.568,1.232
		c-0.186,0.432-0.351,0.632-0.536,0.632c-0.25,0-0.324-0.365-0.24-1.066c-1.877-0.5-2.621-0.634-3.706-0.634
		c-1.732,0-3.127,0.733-3.351,1.798c-0.156,0.734,0.357,1.099,1.967,1.532c3.936,1,4.164,1.1,5.223,2.099
		c0.767,0.766,1.073,2.096,0.786,3.462c-0.739,3.494-4.182,5.726-8.733,5.726c-1.827,0-3.087-0.199-5.681-1.1
		c-0.343,0.299-0.625,0.466-0.78,0.466s-0.251-0.132-0.222-0.265c0.014-0.067,0.073-0.201,0.126-0.3l0.634-1.099l0.741-1.465
		c0.262-0.499,0.417-0.798,0.477-0.931c0.25-0.6,0.384-0.8,0.539-0.8c0.28,0,0.365,0.333,0.286,0.999
		C166.58,18.688,167.381,18.855,168.929,18.855"/>
	<path clip-path="url(#SVGID_2_)" fill="#FFF" d="M181.104,5.615c1.274,0,2.288,0.986,2.288,2.247s-1.014,2.262-2.301,2.262
		c-1.289,0-2.317-1.001-2.317-2.262s1.028-2.247,2.317-2.247H181.104z M181.076,6.065c-0.972,0-1.727,0.812-1.727,1.797
		c0,1.001,0.755,1.796,1.755,1.796c0.973,0.013,1.712-0.795,1.712-1.781c0-1-0.739-1.812-1.725-1.812H181.076z M180.735,9.027
		h-0.522V6.779c0.205-0.028,0.492-0.069,0.863-0.069c0.426,0,0.617,0.069,0.768,0.179c0.137,0.096,0.233,0.261,0.233,0.479
		c0,0.275-0.207,0.454-0.466,0.534V7.93c0.22,0.069,0.329,0.248,0.398,0.549c0.068,0.343,0.123,0.467,0.164,0.548h-0.547
		c-0.069-0.081-0.111-0.274-0.179-0.548c-0.041-0.233-0.18-0.343-0.467-0.343h-0.245V9.027z M180.747,7.767h0.248
		c0.287,0,0.52-0.096,0.52-0.33c0-0.206-0.151-0.343-0.481-0.343c-0.137,0-0.232,0.014-0.287,0.029V7.767z"/>
	<path clip-path="url(#SVGID_2_)" fill="#FFF" d="M173.179,35.974c1.743,0,2.965-0.899,2.965-2.502v-0.024
		c0-1.408-0.923-1.996-2.561-2.423c-1.397-0.358-1.743-0.531-1.743-1.062V29.94c0-0.393,0.358-0.705,1.039-0.705
		s1.385,0.301,2.1,0.797l0.923-1.338c-0.819-0.657-1.822-1.026-3-1.026c-1.65,0-2.826,0.968-2.826,2.433v0.023
		c0,1.605,1.049,2.055,2.676,2.47c1.351,0.347,1.628,0.577,1.628,1.028v0.023c0,0.473-0.439,0.762-1.166,0.762
		c-0.924,0-1.686-0.381-2.412-0.982l-1.049,1.258C170.721,35.548,171.955,35.974,173.179,35.974 M165.669,35.997
		c1.557,0,2.481-0.553,3.311-1.441l-1.13-1.142c-0.635,0.577-1.201,0.946-2.124,0.946c-1.384,0-2.342-1.154-2.342-2.539v-0.023
		c0-1.385,0.981-2.516,2.342-2.516c0.808,0,1.443,0.346,2.066,0.911l1.131-1.303c-0.75-0.738-1.662-1.245-3.185-1.245
		c-2.481,0-4.211,1.879-4.211,4.176v0.023C161.527,34.164,163.292,35.997,165.669,35.997 M158.348,35.859h1.776v-8.076h-1.776
		V35.859z M153.052,35.859h1.776V29.42h2.457v-1.637h-6.691v1.637h2.458V35.859z M142.396,35.859h1.752v-5.134l3.913,5.134h1.511
		v-8.076h-1.753v4.973l-3.786-4.973h-1.637V35.859z M136.749,34.36c-1.431,0-2.447-1.154-2.447-2.539v-0.023
		c0-1.385,0.992-2.516,2.424-2.516c1.431,0,2.447,1.154,2.447,2.539v0.023C139.173,33.229,138.18,34.36,136.749,34.36
		 M136.726,35.997c2.493,0,4.303-1.879,4.303-4.176v-0.023c0-2.297-1.787-4.153-4.28-4.153c-2.493,0-4.304,1.879-4.304,4.176v0.023
		C132.445,34.141,134.233,35.997,136.726,35.997 M127.195,29.386c1.455,0,2.436,1.004,2.436,2.435v0.023
		c0,1.431-0.981,2.412-2.436,2.412h-1.373v-4.87H127.195z M124.046,35.859h3.149c2.54,0,4.292-1.764,4.292-4.038v-0.023
		c0-2.274-1.752-4.015-4.292-4.015h-3.149V35.859z M118.399,34.36c-1.431,0-2.447-1.154-2.447-2.539v-0.023
		c0-1.385,0.993-2.516,2.424-2.516c1.432,0,2.447,1.154,2.447,2.539v0.023C120.823,33.229,119.831,34.36,118.399,34.36
		 M118.376,35.997c2.493,0,4.304-1.879,4.304-4.176v-0.023c0-2.297-1.788-4.153-4.281-4.153c-2.493,0-4.303,1.879-4.303,4.176v0.023
		C114.096,34.141,115.883,35.997,118.376,35.997 M105.88,35.859h1.776v-3.243h3.278v3.243h1.776v-8.076h-1.776v3.196h-3.278v-3.196
		h-1.776V35.859z M100.624,35.859h1.776V29.42h2.457v-1.637h-6.691v1.637h2.458V35.859z M92.414,31.706v-2.32h1.766
		c0.866,0,1.397,0.392,1.397,1.154v0.023c0,0.681-0.497,1.143-1.362,1.143H92.414z M90.638,35.859h1.776v-2.585h1.397l1.731,2.585
		h2.076l-1.972-2.885c1.026-0.38,1.73-1.199,1.73-2.503v-0.023c0-0.762-0.243-1.397-0.692-1.846
		c-0.531-0.531-1.327-0.819-2.354-0.819h-3.692V35.859z M84.991,34.36c-1.431,0-2.447-1.154-2.447-2.539v-0.023
		c0-1.385,0.993-2.516,2.424-2.516s2.447,1.154,2.447,2.539v0.023C87.415,33.229,86.423,34.36,84.991,34.36 M84.968,35.997
		c2.493,0,4.304-1.879,4.304-4.176v-0.023c0-2.297-1.788-4.153-4.281-4.153c-2.493,0-4.303,1.879-4.303,4.176v0.023
		C80.688,34.141,82.475,35.997,84.968,35.997 M72.471,34.522c-0.658,0-1.131-0.381-1.131-0.947v-0.023
		c0-0.392,0.219-0.785,0.75-1.062l1.548,1.57C73.268,34.349,72.876,34.522,72.471,34.522 M72.656,30.875
		c-0.335-0.381-0.474-0.647-0.474-1.005v-0.023c0-0.484,0.312-0.819,0.786-0.819c0.45,0,0.762,0.288,0.762,0.75v0.023
		C73.73,30.309,73.36,30.609,72.656,30.875 M75.563,36.021l1.304-0.911l-1.188-1.188c0.403-0.543,0.75-1.143,1.061-1.709
		l-1.304-0.715c-0.253,0.496-0.519,0.969-0.784,1.385l-1.072-1.074c1.003-0.392,1.695-1.027,1.695-2.112v-0.023
		c0-1.13-0.899-2.029-2.272-2.029c-1.559,0-2.446,1.014-2.446,2.122v0.023c0,0.554,0.173,1.061,0.565,1.615
		c-1.016,0.462-1.569,1.189-1.569,2.217v0.023c0,1.43,1.164,2.329,2.711,2.329c0.935,0,1.708-0.357,2.365-0.899L75.563,36.021z
		 M61.256,35.859h1.776V32.64l3.104-4.857h-2.019l-1.961,3.242l-1.927-3.242h-2.077l3.104,4.892V35.859z M52.957,31.706v-2.32h1.766
		c0.866,0,1.397,0.392,1.397,1.154v0.023c0,0.681-0.496,1.143-1.362,1.143H52.957z M51.181,35.859h1.776v-2.585h1.397l1.732,2.585
		h2.075l-1.972-2.885c1.027-0.38,1.73-1.199,1.73-2.503v-0.023c0-0.762-0.242-1.397-0.692-1.846
		c-0.53-0.531-1.326-0.819-2.354-0.819h-3.692V35.859z M45.925,35.859h1.776V29.42h2.458v-1.637h-6.691v1.637h2.457V35.859z
		 M39.799,35.974c1.742,0,2.964-0.899,2.964-2.502v-0.024c0-1.408-0.922-1.996-2.56-2.423c-1.397-0.358-1.744-0.531-1.744-1.062
		V29.94c0-0.393,0.358-0.705,1.039-0.705c0.682,0,1.386,0.301,2.101,0.797l0.922-1.338c-0.818-0.657-1.822-1.026-3-1.026
		c-1.65,0-2.826,0.968-2.826,2.433v0.023c0,1.605,1.049,2.055,2.676,2.47c1.351,0.347,1.628,0.577,1.628,1.028v0.023
		c0,0.473-0.438,0.762-1.166,0.762c-0.923,0-1.685-0.381-2.411-0.982l-1.05,1.258C37.341,35.548,38.575,35.974,39.799,35.974
		 M33.366,35.859h1.776v-8.076h-1.776V35.859z M28.07,35.859h1.775V29.42h2.458v-1.637h-6.691v1.637h2.458V35.859z M17.413,35.859
		h1.753v-5.134l3.913,5.134h1.51v-8.076h-1.752v4.973l-3.786-4.973h-1.638V35.859z M9.778,35.859h6.149V34.28h-4.385v-1.698h3.808
		v-1.58h-3.808v-1.64h4.327v-1.579H9.778V35.859z M4.119,29.386c1.455,0,2.436,1.004,2.436,2.435v0.023
		c0,1.431-0.981,2.412-2.436,2.412H2.746v-4.87H4.119z M0.97,35.859h3.149c2.54,0,4.292-1.764,4.292-4.038v-0.023
		c0-2.274-1.752-4.015-4.292-4.015H0.97V35.859z"/>
</g>
</svg>
