<?xml version="1.0" encoding="utf-8"?>
<!-- Generator: Adobe Illustrator 22.1.0, SVG Export Plug-In . SVG Version: 6.00 Build 0)  -->
<!DOCTYPE svg PUBLIC "-//W3C//DTD SVG 1.1//EN" "http://www.w3.org/Graphics/SVG/1.1/DTD/svg11.dtd">
<svg class="svg__6" version="1.1" id="Layer_1" xmlns="http://www.w3.org/2000/svg" xmlns:xlink="http://www.w3.org/1999/xlink" x="0px" y="0px"
	 viewBox="0 0 960 254" style="enable-background:new 0 0 960 254;" xml:space="preserve">
<style type="text/css">
	.st0{fill:#FFF;}
	.st1{fill:#FFF;}
  .svg__6{fill:#FFF;}
</style>
<g id="XMLID_280_">
	<path id="XMLID_449_" class="st0" d="M321.7,64.4c0.8-7.4,1.4-14.2,2.1-20.5c0.3-1.6,0.5-2,0.9-2c0.5,0,0.9,1,1.7,2.2
		c1.8,3.1,8.2,15.8,11.7,22.2l28.8,56.7l25.4-50.3c6.9-12.1,10.7-19.8,14.7-27.9c1.3-2.3,2-2.9,2.3-2.9c0.5,0,0.8,0.5,1.2,3.7
		c0.5,6.3,1.2,13.2,1.8,20.2c2.9,30.8,6.4,68.9,8.2,76.4c-1-0.3-2.9-0.3-5.6-0.3c-3.3,0-6.3,0.1-8,0.4c0.1-8.2-3-49.8-4.4-74.2
		c-11.1,23-25,49.8-36,72.9c-1,2.3-1.4,2.3-2.3,0.3c-13-27.8-24.5-50.5-35-73.4c-1.4,23.2-4.8,66.3-4.8,74.3c-1.4-0.3-3.8-0.3-5-0.3
		c-3.1,0-5.6,0.1-6.9,0.4C314.2,135.4,318.6,95.5,321.7,64.4z"/>
	<path id="XMLID_446_" class="st0" d="M483.2,107.7c-0.4,0-0.5,0.1-0.7,0.4c-4,11.3-10,28-11.6,34.2c-1.3-0.3-2.5-0.3-5.2-0.3
		c-2.6,0-5.9,0.3-6.9,0.4c3.3-6.9,8.2-18.4,13.4-31l25.8-64c1.6-3.8,2.2-5.3,3-5.3c0.7,0,1.3,1,3.1,5.3c1.4,3.3,14.2,32.5,25.4,59
		c5.9,14,13.2,30.9,16.6,36c-2.3-0.1-4.6-0.3-6-0.3c-3.3,0-6.9,0.1-8.5,0.4c-2.1-6-9.3-23.7-13.7-34.3c-0.1-0.3-0.1-0.4-0.5-0.4
		H483.2z M514.8,100.1c0.3,0,0.4-0.1,0.3-0.5l-15.4-38l-14.2,38c-0.1,0.4,0,0.5,0.3,0.5H514.8z"/>
	<path id="XMLID_443_" class="st0" d="M589.5,81.6c0-18.7-0.3-33.4-1.6-37.7c2.3,0.3,4,0.3,6,0.3c2.6,0,12.7-0.5,17.2-0.5
		c8.9,0,17.2,1.2,22.8,4.7c6.8,4.3,11.6,12,11.6,21.4c0,11.3-5.3,20.5-15.9,27.8c8.3,11.1,17.9,24.3,26.9,33.9
		c5.5,6.1,9.5,9.5,12,10.6c-1.7,0.7-5.3,0.8-8.5,0.8c-5.9,0-9-1.7-14.3-7.3c-7.2-7.2-19.3-25.2-25.3-33.3c-0.5-0.7-1-0.9-1.7-0.9
		c-2.7,0.1-12.1,0-17.9-0.1c-0.4,0-0.4,0.3-0.4,0.8v4c0,16.4,0.5,30.5,1.2,36.3c-1.2-0.3-3.5-0.3-5.7-0.3c-2.3,0-6.3,0.1-7.7,0.4
		c0.8-4.4,1.3-20.9,1.3-37.8V81.6z M600.5,92.3c0,0.8,0.1,1,0.4,1.2c2.6,0.5,9.1,0.9,16,0.9c3.8,0,5.9-0.4,7.6-1.6
		c5.2-3.8,9.9-10.6,9.9-20c0-13.8-8.9-22.3-23.9-22.3c-4,0-7.7,0.1-9.5,0.5c-0.5,0.1-0.5,0.4-0.5,0.9V92.3z"/>
	<path id="XMLID_441_" class="st0" d="M678.6,43c3.1,0.8,8,1.2,19.2,1.2h42.4c7.6,0,17.1-0.4,19.4-1c-0.7,2.9-1.2,7.4-1.3,11.3
		c-2.1-1.3-5.7-2-14.3-2.5c-4.7-0.3-10.8-0.5-20.7-0.5v53.1c0,16.6,0.5,33,1,37.7c-1.3-0.3-3.4-0.3-5.3-0.3c-3,0-5.7,0.1-8,0.4
		c0.7-4.4,1-20.9,1-37.8V51.4c-6,0-9.4,0-18,0.3c-8.6,0.4-14.1,0.9-17.5,2.1C677.1,51.7,678.3,45.7,678.6,43z"/>
	<path id="XMLID_439_" class="st0" d="M801.4,81.4c0-18.5-0.3-34.2-1.2-37.4c1.2,0.1,3.9,0.1,5.5,0.1c3.7,0,6.9-0.3,7.8-0.4
		c-0.4,4.8-0.9,19.3-0.9,37.8v23c0,16.6,0.4,33.9,1.2,37.7c-1.2-0.1-3.7-0.3-5.7-0.3c-2.6,0-6.4,0.3-7.6,0.4
		c0.5-4.4,0.9-20.9,0.9-37.8V81.4z"/>
	<path id="XMLID_437_" class="st0" d="M877.3,142c-1.3,0-5.5,0.3-6.4,0.4c1-10.8,1.4-69.4,1.4-92.7c0-7,0.3-7.7,1-7.7
		c0.5,0,1.6,1,4.2,3.7c12.4,12.9,58,66,68.3,75.5c-0.3-21.1-0.5-63.4-1.6-77.2c1.2,0.3,3.4,0.3,5.1,0.3c2.3,0,5.6-0.3,6.5-0.4
		c-0.7,7.8-1.4,38.7-1.4,65.2c0,11.1,0.1,17.1,0.1,23c0,11.2-0.3,12.3-1,12.3c-0.9,0-3.3-2.3-10.4-9.8c-10.7-10.8-47.6-55-62.1-70.4
		c0.3,28,0.7,68,1.7,78.3C881,142,879.2,142,877.3,142z"/>
</g>
<g id="XMLID_281_">
	<g id="XMLID_303_">
		<path id="XMLID_306_" class="st1" d="M127.1,216.2c-1.5,0-2.8-1.2-2.8-2.8V76.9c0-5.3-4.3-9.7-9.7-9.7c-5.3,0-9.7,4.3-9.7,9.7
			c0,5.3,4.3,9.7,9.7,9.7c1.5,0,2.8,1.2,2.8,2.8c0,1.5-1.2,2.8-2.8,2.8c-8.4,0-15.2-6.8-15.2-15.2s6.8-15.2,15.2-15.2
			s15.2,6.8,15.2,15.2v136.5C129.9,214.9,128.6,216.2,127.1,216.2z"/>
		<path id="XMLID_305_" class="st1" d="M127.1,249.9c-1.5,0-2.8-1.2-2.8-2.8V76.9c0-8.4,6.8-15.2,15.2-15.2
			c8.4,0,15.2,6.8,15.2,15.2s-6.8,15.2-15.2,15.2c-1.5,0-2.8-1.2-2.8-2.8c0-1.5,1.2-2.8,2.8-2.8c5.3,0,9.7-4.3,9.7-9.7
			c0-5.3-4.3-9.7-9.7-9.7c-5.3,0-9.7,4.3-9.7,9.7v170.3C129.9,248.7,128.6,249.9,127.1,249.9z"/>
		<path id="XMLID_304_" class="st1" d="M160.2,209.7c-1,0-2-0.6-2.5-1.5c-0.2-0.4-0.3-0.8-0.3-1.2v-55.5c0-8.4,6.8-15.2,15.2-15.2
			s15.2,6.8,15.2,15.2c0,8.4-6.8,15.2-15.2,15.2c-1.5,0-2.8-1.2-2.8-2.8s1.2-2.8,2.8-2.8c5.3,0,9.7-4.3,9.7-9.7
			c0-5.3-4.3-9.7-9.7-9.7s-9.7,4.3-9.7,9.7v51.3c29.5-13.9,48.3-43.3,48.3-76.1c0-46.4-37.7-84.1-84.1-84.1S43,80.2,43,126.5
			c0,32.8,18.8,62.3,48.3,76.1v-51.3c0-5.3-4.3-9.7-9.7-9.7s-9.7,4.3-9.7,9.7c0,5.3,4.3,9.7,9.7,9.7c1.5,0,2.8,1.2,2.8,2.8
			s-1.2,2.8-2.8,2.8c-8.4,0-15.2-6.8-15.2-15.2c0-8.4,6.8-15.2,15.2-15.2s15.2,6.8,15.2,15.2v55.5c0,0.4-0.1,0.9-0.3,1.2
			c-0.6,1.3-2.2,1.9-3.5,1.3c-33.7-13.9-55.5-46.4-55.5-82.9c0-49.4,40.2-89.6,89.6-89.6s89.6,40.2,89.6,89.6
			c0,36.5-21.8,69-55.5,82.9C160.9,209.6,160.6,209.7,160.2,209.7z"/>
	</g>
	<path id="XMLID_302_" class="st1" d="M143.7,231.9c-0.7,0-1.3-0.2-1.8-0.7c-0.6-0.5-1-1.3-1-2.1V115.5c0-8.4,6.8-15.2,15.2-15.2
		c8.4,0,15.2,6.8,15.2,15.2s-6.8,15.2-15.2,15.2c-1.5,0-2.8-1.2-2.8-2.8c0-1.5,1.2-2.8,2.8-2.8c5.3,0,9.7-4.3,9.7-9.7
		c0-5.3-4.3-9.7-9.7-9.7c-5.3,0-9.7,4.3-9.7,9.7v110.3c47.6-9.1,81.8-50.4,81.8-99.3c0-55.8-45.4-101.1-101.1-101.1
		S26,70.8,26,126.5c0,48.9,34.2,90.1,81.8,99.3V115.5c0-5.3-4.3-9.7-9.7-9.7c-5.3,0-9.7,4.3-9.7,9.7c0,5.3,4.3,9.7,9.7,9.7
		c1.5,0,2.8,1.2,2.8,2.8c0,1.5-1.2,2.8-2.8,2.8c-8.4,0-15.2-6.8-15.2-15.2s6.8-15.2,15.2-15.2s15.2,6.8,15.2,15.2v113.6
		c0,0.8-0.4,1.6-1,2.1c-0.6,0.5-1.4,0.8-2.2,0.6c-52-8.3-89.7-52.6-89.7-105.3c0-58.8,47.8-106.6,106.6-106.6
		s106.6,47.8,106.6,106.6c0,52.7-37.7,97-89.7,105.3C143.9,231.9,143.8,231.9,143.7,231.9z"/>
	<path id="XMLID_299_" class="st1" d="M127.1,249.9c-68,0-123.4-55.4-123.4-123.4c0-68,55.4-123.4,123.4-123.4
		c68,0,123.4,55.4,123.4,123.4C250.5,194.6,195.2,249.9,127.1,249.9z M127.1,8.7C62.1,8.7,9.2,61.5,9.2,126.5
		c0,65,52.9,117.9,117.9,117.9c65,0,117.9-52.9,117.9-117.9C245,61.5,192.1,8.7,127.1,8.7z"/>
</g>
<g>
	<path d="M312.5,211.6v-41H324c2.2,0,4.3,0.3,6.2,0.9c1.9,0.6,3.4,1.5,4.7,2.6c1.3,1.1,2.3,2.5,3,4.2c0.7,1.6,1.1,3.5,1.1,5.6
		c0,1.6-0.2,3.3-0.7,4.9c-0.5,1.6-1.3,3.1-2.4,4.4c-1.1,1.3-2.5,2.3-4.3,3.1c-1.8,0.8-3.9,1.2-6.5,1.2h-5.7v14.1H312.5z
		 M319.3,191.1h5.5c1.4,0,2.6-0.2,3.5-0.7c0.9-0.5,1.7-1.1,2.2-1.8c0.6-0.7,1-1.5,1.2-2.3c0.2-0.8,0.3-1.5,0.3-2.2
		c0-0.6-0.1-1.3-0.3-2.1c-0.2-0.8-0.6-1.6-1.1-2.3s-1.3-1.3-2.2-1.8c-0.9-0.5-2.1-0.7-3.6-0.7h-5.6V191.1z"/>
	<path d="M356.5,211.6v-41h6.9v34.4h19.9v6.5H356.5z"/>
	<path d="M430.8,211.6c-0.1-0.3-0.3-0.7-0.6-1.4c-0.3-0.7-0.6-1.5-1-2.5c-0.4-1-0.9-2.1-1.3-3.2c-0.5-1.2-1-2.4-1.5-3.7h-14.1
		l-4.5,10.8h-6.8c0.2-0.3,0.5-1.2,1.1-2.5c0.6-1.3,1.3-3,2.1-4.9c0.8-2,1.8-4.2,2.8-6.6c1-2.4,2.1-4.9,3.2-7.4
		c1.1-2.5,2.1-5,3.2-7.4c1-2.4,2-4.6,2.8-6.6c0.8-2,1.5-3.6,2.1-4.9c0.6-1.3,0.9-2.2,1.1-2.5c0.2,0.3,0.5,1.2,1.1,2.5
		c0.6,1.3,1.3,3,2.1,4.9c0.8,2,1.8,4.2,2.8,6.6c1,2.4,2.1,4.9,3.2,7.4c1.1,2.5,2.1,5,3.2,7.4c1,2.4,2,4.6,2.8,6.6
		c0.8,2,1.5,3.6,2.1,4.9c0.6,1.3,0.9,2.2,1.1,2.5H430.8z M414.6,195h9.3l-4-9.8c0,0-0.1-0.3-0.3-0.8c-0.2-0.5-0.3-0.9-0.3-1.3
		c-0.1,0.4-0.2,0.8-0.3,1.3c-0.2,0.5-0.2,0.7-0.2,0.8L414.6,195z"/>
	<path d="M480,173l-2.5,5.6c-1.6-0.6-3.1-1-4.7-1.3c-1.5-0.3-3-0.5-4.3-0.5c-2.3,0-4.1,0.4-5.4,1.3s-2,2-2,3.4
		c0,1.2,0.5,2.2,1.5,2.9c1,0.7,2.2,1.4,3.7,2c1.5,0.6,3.1,1.2,4.9,1.8c1.7,0.6,3.4,1.4,4.9,2.4c1.5,1,2.7,2.2,3.7,3.7
		c1,1.5,1.5,3.4,1.5,5.7c0,1.8-0.3,3.4-1,4.9c-0.7,1.5-1.6,2.7-3,3.8c-1.3,1-3,1.9-5,2.4c-2,0.6-4.4,0.9-7.1,0.9
		c-1.6,0-3.1-0.1-4.5-0.3c-1.3-0.2-2.6-0.5-3.6-0.8c-1.1-0.3-2-0.7-2.8-1.1c-0.8-0.4-1.5-0.8-2.1-1.2l3-6c1.6,0.9,3.3,1.5,5.1,2
		c1.8,0.5,3.4,0.7,4.8,0.7c0.7,0,1.5-0.1,2.6-0.2c1.1-0.1,2.1-0.4,3.1-0.8c1-0.4,1.9-1,2.6-1.7c0.7-0.7,1.1-1.6,1.1-2.8
		c0-1.3-0.5-2.4-1.5-3.2c-1-0.8-2.2-1.6-3.7-2.2c-1.5-0.7-3.1-1.3-4.9-1.9s-3.4-1.4-4.9-2.3c-1.5-0.9-2.7-2-3.7-3.3
		c-1-1.3-1.5-2.9-1.5-4.9c0-1.4,0.3-2.8,0.8-4.2c0.6-1.4,1.4-2.6,2.6-3.7c1.1-1.1,2.6-2,4.3-2.6c1.7-0.7,3.7-1,6-1
		c1.5,0,2.9,0.1,4.2,0.4c1.4,0.2,2.6,0.5,3.7,0.8c1.1,0.3,2,0.6,2.7,0.9C479.4,172.8,479.8,172.9,480,173z"/>
	<path d="M523.7,170.7v6.6h-10.1v34.4h-6.9v-34.4h-9.9v-6.6H523.7z"/>
	<path d="M542,170.7h6.9v41H542V170.7z"/>
	<path d="M600.4,208.6c-0.5,0.3-1.1,0.7-1.9,1.1c-0.8,0.4-1.8,0.8-2.9,1.2c-1.1,0.4-2.4,0.7-3.7,0.9c-1.4,0.2-2.9,0.4-4.4,0.4
		c-3.2,0-6.1-0.6-8.7-1.7c-2.5-1.1-4.7-2.6-6.5-4.5c-1.8-1.9-3.1-4.1-4-6.6c-0.9-2.5-1.4-5.1-1.4-7.9c0-3.1,0.6-5.9,1.7-8.5
		c1.1-2.6,2.6-4.9,4.6-6.7c1.9-1.9,4.2-3.4,6.7-4.4c2.6-1,5.3-1.6,8.2-1.6c1.1,0,2.3,0.1,3.4,0.3c1.1,0.2,2.2,0.4,3.2,0.6
		c1,0.3,1.9,0.6,2.7,0.9c0.8,0.3,1.3,0.7,1.7,1.1c-0.3,0.5-0.6,1-0.8,1.3c-0.2,0.3-0.4,0.7-0.6,1c-0.2,0.4-0.4,0.8-0.7,1.2
		c-0.2,0.4-0.6,1.1-1,1.9c-0.5-0.3-1-0.6-1.6-0.8s-1.3-0.4-2-0.5c-0.7-0.1-1.4-0.2-2.1-0.3c-0.7-0.1-1.3-0.1-1.9-0.1
		c-2.1,0-4,0.4-5.8,1.2c-1.8,0.8-3.3,1.8-4.6,3.1c-1.3,1.3-2.3,2.8-3,4.5c-0.7,1.7-1.1,3.5-1.1,5.3c0,1.8,0.3,3.6,1,5.3
		c0.7,1.7,1.7,3.2,2.9,4.5c1.3,1.3,2.7,2.4,4.5,3.2c1.7,0.8,3.6,1.2,5.7,1.2c1.2,0,2.4-0.1,3.5-0.4c1.1-0.2,2.1-0.5,3-0.8
		c0.9-0.3,1.6-0.6,2.1-0.9c0.5-0.3,0.8-0.5,0.9-0.6L600.4,208.6z"/>
	<path d="M665,173l-2.5,5.6c-1.6-0.6-3.1-1-4.7-1.3c-1.5-0.3-3-0.5-4.3-0.5c-2.3,0-4.1,0.4-5.4,1.3s-2,2-2,3.4
		c0,1.2,0.5,2.2,1.5,2.9c1,0.7,2.2,1.4,3.7,2c1.5,0.6,3.1,1.2,4.9,1.8c1.7,0.6,3.4,1.4,4.9,2.4c1.5,1,2.7,2.2,3.7,3.7
		c1,1.5,1.5,3.4,1.5,5.7c0,1.8-0.3,3.4-1,4.9c-0.7,1.5-1.6,2.7-3,3.8c-1.3,1-3,1.9-5,2.4c-2,0.6-4.4,0.9-7.1,0.9
		c-1.6,0-3.1-0.1-4.5-0.3c-1.3-0.2-2.6-0.5-3.6-0.8c-1.1-0.3-2-0.7-2.8-1.1c-0.8-0.4-1.5-0.8-2.1-1.2l3-6c1.6,0.9,3.3,1.5,5.1,2
		c1.8,0.5,3.4,0.7,4.8,0.7c0.7,0,1.5-0.1,2.6-0.2c1.1-0.1,2.1-0.4,3.1-0.8c1-0.4,1.9-1,2.6-1.7c0.7-0.7,1.1-1.6,1.1-2.8
		c0-1.3-0.5-2.4-1.5-3.2c-1-0.8-2.2-1.6-3.7-2.2c-1.5-0.7-3.1-1.3-4.9-1.9s-3.4-1.4-4.9-2.3c-1.5-0.9-2.7-2-3.7-3.3
		c-1-1.3-1.5-2.9-1.5-4.9c0-1.4,0.3-2.8,0.8-4.2c0.6-1.4,1.4-2.6,2.6-3.7c1.1-1.1,2.6-2,4.3-2.6c1.7-0.7,3.7-1,6-1
		c1.5,0,2.9,0.1,4.2,0.4c1.4,0.2,2.6,0.5,3.7,0.8c1.1,0.3,2,0.6,2.7,0.9C664.4,172.8,664.9,172.9,665,173z"/>
	<path d="M699.6,212.1c-2.2,0-4.3-0.4-6.2-1.1c-1.9-0.7-3.6-1.8-5-3.1c-1.4-1.3-2.5-2.9-3.4-4.7c-0.8-1.9-1.2-3.9-1.2-6.2v-26.4h6.9
		v26.2c0,1.2,0.2,2.3,0.7,3.4c0.5,1,1.1,2,1.9,2.8c0.8,0.8,1.8,1.4,2.8,1.9c1.1,0.5,2.3,0.7,3.5,0.7c1.3,0,2.5-0.2,3.6-0.7
		c1.1-0.5,2.1-1.1,2.9-1.9c0.8-0.8,1.5-1.7,1.9-2.8c0.5-1,0.7-2.2,0.7-3.4v-26.2h6.9V197c0,2.2-0.4,4.3-1.2,6.2
		c-0.8,1.9-2,3.4-3.4,4.7c-1.4,1.3-3.1,2.3-5.1,3.1C703.9,211.7,701.8,212.1,699.6,212.1z"/>
	<path d="M735.9,211.6v-41h11.6c2.2,0,4.3,0.3,6.2,0.9c1.9,0.6,3.4,1.5,4.7,2.6c1.3,1.1,2.3,2.5,3,4.2c0.7,1.6,1.1,3.5,1.1,5.6
		c0,1.1-0.1,2.2-0.3,3.4c-0.2,1.1-0.6,2.2-1.1,3.3c-0.5,1-1.1,2-1.9,2.9c-0.8,0.9-1.7,1.6-2.8,2.3c0.8,1.3,1.6,2.6,2.4,3.8
		c0.8,1.3,1.6,2.5,2.4,3.8c0.8,1.3,1.6,2.6,2.5,3.9c0.9,1.3,1.8,2.8,2.8,4.4h-8.3c-1.7-2.6-3.3-5.1-4.8-7.4
		c-1.5-2.3-2.9-4.6-4.3-6.7h-0.6h-5.7v14.1H735.9z M742.7,191.1h5.5c1.4,0,2.6-0.2,3.5-0.7c0.9-0.5,1.7-1.1,2.2-1.8
		c0.6-0.7,1-1.4,1.2-2.2c0.2-0.8,0.3-1.5,0.3-2.2c0-0.6-0.1-1.4-0.3-2.2c-0.2-0.8-0.6-1.6-1.1-2.3s-1.3-1.3-2.2-1.8
		c-0.9-0.5-2.1-0.7-3.6-0.7h-5.6V191.1z"/>
	<path d="M813.1,191.7v17.4c-1.6,0.9-3.5,1.7-5.7,2.2c-2.2,0.5-4.5,0.8-6.8,0.8c-3.2,0-6.1-0.5-8.7-1.5c-2.6-1-4.8-2.4-6.7-4.2
		c-1.8-1.8-3.2-3.9-4.2-6.3s-1.5-5.1-1.5-8c0-3.3,0.6-6.2,1.7-8.9s2.7-5,4.7-6.9c2-1.9,4.3-3.4,6.9-4.5c2.6-1.1,5.3-1.6,8.2-1.6
		c1,0,2,0.1,3.1,0.2c1.1,0.1,2.1,0.3,3.2,0.6c1,0.3,2.1,0.6,3,0.9s1.9,0.8,2.6,1.3l-3.4,5.6c-0.5-0.3-1.2-0.6-1.9-0.9
		c-0.7-0.2-1.5-0.5-2.3-0.6c-0.8-0.2-1.6-0.3-2.3-0.4s-1.5-0.1-2.2-0.1c-1.9,0-3.7,0.4-5.5,1.2c-1.7,0.8-3.3,1.8-4.6,3.1
		c-1.3,1.3-2.4,2.9-3.2,4.7c-0.8,1.8-1.2,3.8-1.2,5.8c0,1.9,0.4,3.7,1.1,5.3c0.7,1.7,1.7,3.2,3,4.5c1.3,1.3,2.8,2.3,4.6,3.1
		c1.8,0.8,3.7,1.2,5.8,1.2c0.7,0,1.7-0.1,2.8-0.2c1.1-0.1,2.2-0.4,3.2-0.7v-7h-7.6v-6H813.1z"/>
	<path d="M832.1,211.6v-41h27.2v6.2h-20.3v11H857v6.4h-18.1v10.9h21.1v6.4H832.1z"/>
	<path d="M878.1,211.6v-41h11.6c2.2,0,4.3,0.3,6.2,0.9c1.9,0.6,3.4,1.5,4.7,2.6c1.3,1.1,2.3,2.5,3,4.2c0.7,1.6,1.1,3.5,1.1,5.6
		c0,1.1-0.1,2.2-0.3,3.4c-0.2,1.1-0.6,2.2-1.1,3.3c-0.5,1-1.1,2-1.9,2.9c-0.8,0.9-1.7,1.6-2.8,2.3c0.8,1.3,1.6,2.6,2.4,3.8
		c0.8,1.3,1.6,2.5,2.4,3.8c0.8,1.3,1.6,2.6,2.5,3.9c0.9,1.3,1.8,2.8,2.8,4.4h-8.3c-1.7-2.6-3.3-5.1-4.8-7.4
		c-1.5-2.3-2.9-4.6-4.3-6.7h-0.6h-5.7v14.1H878.1z M884.9,191.1h5.5c1.4,0,2.6-0.2,3.5-0.7c0.9-0.5,1.7-1.1,2.2-1.8
		c0.6-0.7,1-1.4,1.2-2.2c0.2-0.8,0.3-1.5,0.3-2.2c0-0.6-0.1-1.4-0.3-2.2c-0.2-0.8-0.6-1.6-1.1-2.3s-1.3-1.3-2.2-1.8
		c-0.9-0.5-2.1-0.7-3.6-0.7h-5.6V191.1z"/>
	<path d="M940.2,198.4v13.3h-6.9v-13.3c-0.2-0.3-0.7-1.1-1.4-2.5c-0.7-1.4-1.7-3.1-2.8-5.1c-1.1-2-2.2-4.1-3.4-6.3
		c-1.2-2.2-2.3-4.3-3.4-6.3c-1.1-2-2-3.7-2.8-5.1c-0.7-1.4-1.2-2.2-1.4-2.5h7.8c0.2,0.3,0.4,0.8,0.9,1.6c0.4,0.8,0.9,1.8,1.5,2.9
		c0.6,1.1,1.3,2.4,2,3.8c0.7,1.4,1.4,2.7,2.1,4.1c0.7,1.4,1.4,2.7,2,3.9c0.6,1.3,1.2,2.4,1.7,3.3l0.6,1.9c0.2-0.3,0.3-0.6,0.4-1
		c0.1-0.4,0.2-0.7,0.3-0.9c0.5-0.9,1-2,1.7-3.3c0.6-1.3,1.3-2.6,2-3.9c0.7-1.4,1.4-2.7,2.1-4.1c0.7-1.4,1.3-2.6,1.9-3.8
		c0.6-1.1,1.1-2.1,1.5-2.9c0.4-0.8,0.7-1.3,0.8-1.6h7.8L940.2,198.4z"/>
</g>
</svg>
