<?xml version="1.0" encoding="utf-8"?>
<!-- Generator: Adobe Illustrator 22.1.0, SVG Export Plug-In . SVG Version: 6.00 Build 0)  -->
<!DOCTYPE svg PUBLIC "-//W3C//DTD SVG 1.1//EN" "http://www.w3.org/Graphics/SVG/1.1/DTD/svg11.dtd">
<svg version="1.1" id="Layer_1" xmlns="http://www.w3.org/2000/svg" xmlns:xlink="http://www.w3.org/1999/xlink" x="0px" y="0px"
	 viewBox="0 0 500 59" style="enable-background:new 0 0 500 59;" xml:space="preserve">
<style type="text/css">
	.st0{fill:#FFF;}
	.st1{fill:#FFF;}
	.st2{fill:#FFF;}
	.st3{fill:#FFF;}
</style>
<g>
	<path class="st0" d="M13.1,25.7c-6.6,0-11.5-5.2-11.5-11.8C1.7,7.3,6.5,2,13.2,2c4.1,0,6.6,1.5,8.9,3.6l-1.8,1.9
		c-1.9-1.8-4.1-3.1-7.2-3.1c-5.1,0-8.8,4.1-8.8,9.4s3.8,9.5,8.8,9.5c3.1,0,5.2-1.2,7.4-3.3l1.7,1.7C19.9,24.1,17.3,25.7,13.1,25.7z"
		/>
	<path class="st0" d="M36.7,25.7c-7,0-11.6-5.5-11.6-11.8S29.8,2,36.8,2c7,0,11.6,5.5,11.6,11.8S43.7,25.7,36.7,25.7z M36.7,4.4
		c-5.2,0-8.9,4.2-8.9,9.4s3.8,9.5,9,9.5s8.9-4.2,8.9-9.4S41.9,4.4,36.7,4.4z"/>
	<path class="st0" d="M70.7,2.4h2.5v22.9h-2.1L56.4,6.5v18.7h-2.5V2.4h2.4l14.4,18.3V2.4z"/>
	<path class="st0" d="M88.3,25.3h-2.6V4.8H78V2.4h18v2.4h-7.7V25.3z"/>
	<path class="st0" d="M117.3,4.8h-13.9v7.8h12.5v2.4h-12.5v8h14.1v2.4h-16.7V2.4h16.5V4.8z"/>
	<path class="st0" d="M133.6,19h-0.1l-8.3-12.2v18.5h-2.5V2.4h2.6l8.3,12.5l8.3-12.5h2.6v22.9h-2.6V6.8L133.6,19z"/>
	<path class="st0" d="M159.1,17.2h-5.5v8.1H151V2.4h8.6c5.2,0,8.6,2.7,8.6,7.3C168.1,14.7,164,17.2,159.1,17.2z M159.3,4.8h-5.8
		v10.1h5.6c3.8,0,6.3-2,6.3-5.1C165.5,6.5,163,4.8,159.3,4.8z"/>
	<path class="st0" d="M183.4,25.7c-7,0-11.6-5.5-11.6-11.8S176.5,2,183.5,2c7,0,11.6,5.5,11.6,11.8S190.3,25.7,183.4,25.7z
		 M183.4,4.4c-5.2,0-8.9,4.2-8.9,9.4s3.8,9.5,9,9.5c5.2,0,8.9-4.2,8.9-9.4S188.6,4.4,183.4,4.4z"/>
	<path class="st0" d="M216.3,25.3l-6.6-8.9h-6.5v8.9h-2.6V2.4h9.8c5,0,8.3,2.7,8.3,6.8c0,3.8-2.6,6-6.2,6.7l7,9.3H216.3z M210.2,4.8
		h-7.1v9.3h7c3.4,0,5.9-1.8,5.9-4.7C216,6.5,213.8,4.8,210.2,4.8z"/>
	<path class="st0" d="M245.4,25.3h-2.8l-2.7-6h-12.4l-2.7,6h-2.6l10.4-23h2.4L245.4,25.3z M233.8,5.3l-5.2,11.7h10.4L233.8,5.3z"/>
	<path class="st0" d="M265.6,25.3l-6.6-8.9h-6.5v8.9h-2.6V2.4h9.8c5,0,8.3,2.7,8.3,6.8c0,3.8-2.6,6-6.2,6.7l7,9.3H265.6z M259.5,4.8
		h-7.1v9.3h7c3.4,0,5.9-1.8,5.9-4.7C265.4,6.5,263.2,4.8,259.5,4.8z"/>
	<path class="st0" d="M282.4,25.3h-2.6v-9l-9.5-13.8h3.1l7.7,11.4l7.8-11.4h3l-9.5,13.8V25.3z"/>
	<path class="st0" d="M322.3,25.7l-3.6-3.7c-2.1,2.3-4.5,3.6-7.5,3.6c-4.1,0-7.2-2.6-7.2-6.4c0-3.1,2-5.3,5.5-6.6
		c-1.6-1.8-2.3-3.2-2.3-5.1c0-3,2.4-5.5,6-5.5c3.2,0,5.5,2.3,5.5,5.2c0,3-2.1,4.8-5.4,6l5.2,5.3c1-1.5,1.9-3.2,2.7-5.1l2.1,1
		c-1,2.2-2.1,4.1-3.3,5.7l4,4.1L322.3,25.7z M311.1,14.1c-3,1.1-4.4,3-4.4,4.9c0,2.5,2,4.3,4.8,4.3c2.2,0,4-1.1,5.7-3L311.1,14.1z
		 M313.3,4.1c-2.1,0-3.5,1.4-3.5,3.3c0,1.4,0.6,2.4,2.3,4.2c2.9-1,4.4-2.4,4.4-4.4C316.5,5.5,315.1,4.1,313.3,4.1z"/>
	<path class="st0" d="M354.9,4.8h-13.9v7.8h12.5v2.4h-12.5v8H355v2.4h-16.7V2.4h16.5V4.8z"/>
	<path class="st0" d="M368.4,12.6c5.1,1.1,7.4,3,7.4,6.5c0,3.9-3.3,6.5-7.8,6.5c-3.6,0-6.6-1.2-9.3-3.7l1.6-1.9
		c2.4,2.2,4.7,3.2,7.8,3.2c3.1,0,5.1-1.6,5.1-3.9c0-2.2-1.1-3.4-5.9-4.4c-5.3-1.1-7.7-2.8-7.7-6.6c0-3.7,3.2-6.3,7.5-6.3
		c3.3,0,5.7,0.9,8,2.8l-1.5,2c-2.1-1.7-4.2-2.5-6.6-2.5c-3,0-4.9,1.6-4.9,3.7C362.2,10.3,363.4,11.5,368.4,12.6z"/>
	<path class="st0" d="M389.3,25.3h-2.6V4.8H379V2.4h18v2.4h-7.7V25.3z"/>
	<path class="st0" d="M404.3,15v10.3h-2.6V2.4h2.6v10.2h13.2V2.4h2.6v22.9h-2.6V15H404.3z"/>
	<path class="st0" d="M443.1,4.8h-13.9v7.8h12.5v2.4h-12.5v8h14.1v2.4h-16.7V2.4h16.5V4.8z"/>
	<path class="st0" d="M457.1,25.3h-2.6V4.8h-7.7V2.4h18v2.4h-7.7V25.3z"/>
	<path class="st0" d="M472.4,2.4v22.9h-2.6V2.4H472.4z"/>
	<path class="st0" d="M489.5,25.7c-6.6,0-11.5-5.2-11.5-11.8c0-6.5,4.8-11.8,11.6-11.8c4.1,0,6.6,1.5,8.9,3.6l-1.8,1.9
		c-1.9-1.8-4.1-3.1-7.2-3.1c-5.1,0-8.8,4.1-8.8,9.4s3.8,9.5,8.8,9.5c3.1,0,5.2-1.2,7.4-3.3l1.7,1.7
		C496.3,24.1,493.7,25.7,489.5,25.7z"/>
</g>
<g>
	<path class="st1" d="M9.9,55.9h-6V38.6h6c5.5,0,9.2,3.7,9.2,8.7C19.2,52.1,15.4,55.9,9.9,55.9z M9.9,40.4H5.9v13.8h4.1
		c4.4,0,7.2-3,7.2-6.9C17.1,43.4,14.3,40.4,9.9,40.4z"/>
	<path class="st1" d="M35.9,40.3H25.3v5.9h9.5v1.8h-9.5v6.1H36v1.8H23.3V38.6h12.6V40.3z"/>
	<path class="st1" d="M52.7,38.6h1.9v17.4h-1.6L41.9,41.7v14.2H40V38.6h1.8l10.9,13.9V38.6z"/>
	<path class="st1" d="M66.1,55.9h-2V40.4h-5.8v-1.8H72v1.8h-5.8V55.9z"/>
	<path class="st1" d="M77.8,38.6v17.4h-2V38.6H77.8z"/>
	<path class="st1" d="M89.1,46.3c3.9,0.8,5.7,2.3,5.7,4.9c0,3-2.5,4.9-5.9,4.9c-2.8,0-5-0.9-7.1-2.8l1.2-1.4c1.8,1.6,3.6,2.5,6,2.5
		c2.3,0,3.9-1.2,3.9-3c0-1.6-0.9-2.6-4.5-3.3c-4-0.9-5.8-2.2-5.8-5c0-2.8,2.4-4.8,5.7-4.8c2.5,0,4.3,0.7,6.1,2.1L93.1,42
		c-1.6-1.3-3.2-1.9-5-1.9c-2.3,0-3.7,1.2-3.7,2.8C84.4,44.6,85.3,45.5,89.1,46.3z"/>
	<path class="st1" d="M105,55.9h-2V40.4h-5.8v-1.8h13.7v1.8H105V55.9z"/>
	<path class="st1" d="M126.4,55.9l-5-6.8h-5v6.8h-2V38.6h7.5c3.8,0,6.3,2.1,6.3,5.2c0,2.9-2,4.6-4.7,5.1l5.3,7.1H126.4z M121.8,40.4
		h-5.4v7.1h5.3c2.6,0,4.5-1.3,4.5-3.6C126.2,41.7,124.6,40.4,121.8,40.4z"/>
	<path class="st1" d="M139.2,55.9h-2v-6.9L130,38.6h2.4l5.9,8.7l5.9-8.7h2.3L139.2,49V55.9z"/>
</g>
<g>
	<path class="st2" d="M185.5,51.2L185.5,51.2l-6.4-9.3v14.1h-1.9V38.6h2l6.3,9.5l6.3-9.5h2v17.4h-2V41.9L185.5,51.2z"/>
	<path class="st2" d="M214.8,55.9h-2.1l-2-4.6h-9.5l-2.1,4.6h-2l7.9-17.5h1.8L214.8,55.9z M206,40.7l-4,8.9h7.9L206,40.7z"/>
	<path class="st2" d="M230.2,55.9l-5-6.8h-5v6.8h-2V38.6h7.5c3.8,0,6.3,2.1,6.3,5.2c0,2.9-2,4.6-4.7,5.1l5.3,7.1H230.2z M225.6,40.4
		h-5.4v7.1h5.3c2.6,0,4.5-1.3,4.5-3.6C230,41.7,228.4,40.4,225.6,40.4z"/>
	<path class="st2" d="M238.3,38.6v17.4h-2V38.6H238.3z"/>
	<path class="st2" d="M259.6,55.9h-2.1l-2-4.6H246l-2.1,4.6h-2l7.9-17.5h1.8L259.6,55.9z M250.8,40.7l-4,8.9h7.9L250.8,40.7z"/>
	<path class="st2" d="M275.8,38.6h1.9v17.4h-1.6L265,41.7v14.2H263V38.6h1.8l10.9,13.9V38.6z"/>
	<path class="st2" d="M295.4,38.6h1.9v17.4h-1.6l-11.2-14.2v14.2h-1.9V38.6h1.8l10.9,13.9V38.6z"/>
	<path class="st2" d="M318.4,55.9h-2.1l-2-4.6h-9.5l-2.1,4.6h-2l7.9-17.5h1.8L318.4,55.9z M309.6,40.7l-4,8.9h7.9L309.6,40.7z"/>
	<path class="st2" d="M341.8,40.4h-10.5v6.2h9.4v1.8h-9.4v7.6h-2V38.6h12.5V40.4z"/>
	<path class="st2" d="M359.8,55.9h-2.1l-2-4.6h-9.5l-2.1,4.6h-2l7.9-17.5h1.8L359.8,55.9z M350.9,40.7l-4,8.9h7.9L350.9,40.7z"/>
	<path class="st2" d="M375.2,55.9l-5-6.8h-5v6.8h-2V38.6h7.5c3.8,0,6.3,2.1,6.3,5.2c0,2.9-2,4.6-4.7,5.1l5.3,7.1H375.2z M370.5,40.4
		h-5.4v7.1h5.3c2.6,0,4.5-1.3,4.5-3.6C375,41.7,373.3,40.4,370.5,40.4z"/>
	<path class="st2" d="M394.2,42.9c0,2.3-1.4,3.5-2.8,4c2.1,0.6,3.7,1.8,3.7,4.2c0,3-2.5,4.8-6.3,4.8h-7.7V38.6h7.4
		C392,38.6,394.2,40.2,394.2,42.9z M392.2,43.2c0-1.7-1.4-2.9-3.8-2.9h-5.3v6h5.1C390.6,46.3,392.2,45.2,392.2,43.2z M393.2,51
		c0-1.9-1.6-3-4.6-3h-5.5v6.1h5.8C391.6,54.2,393.2,53,393.2,51z"/>
	<path class="st2" d="M411.6,40.3H401v5.9h9.5v1.8H401v6.1h10.7v1.8h-12.7V38.6h12.6V40.3z"/>
	<path class="st2" d="M427.7,55.9l-5-6.8h-5v6.8h-2V38.6h7.5c3.8,0,6.3,2.1,6.3,5.2c0,2.9-2,4.6-4.7,5.1l5.3,7.1H427.7z M423,40.4
		h-5.4v7.1h5.3c2.6,0,4.5-1.3,4.5-3.6C427.5,41.7,425.8,40.4,423,40.4z"/>
	<path class="st2" d="M434,55.9h-0.9v-2.6h2.3v2.2c0,2-0.9,3-2.8,3.4l-0.3-0.9C433.6,57.6,434.1,57,434,55.9z"/>
	<path class="st2" d="M453.2,55.9h-6V38.6h6c5.5,0,9.2,3.7,9.2,8.7C462.5,52.1,458.7,55.9,453.2,55.9z M453.2,40.4h-4.1v13.8h4.1
		c4.4,0,7.2-3,7.2-6.9C460.4,43.4,457.6,40.4,453.2,40.4z"/>
	<path class="st2" d="M472.6,55.9h-6V38.6h6c5.5,0,9.2,3.7,9.2,8.7C481.9,52.1,478.1,55.9,472.6,55.9z M472.6,40.4h-4.1v13.8h4.1
		c4.4,0,7.2-3,7.2-6.9C479.8,43.4,477,40.4,472.6,40.4z"/>
	<path class="st2" d="M492,46.3c3.9,0.8,5.7,2.3,5.7,4.9c0,3-2.5,4.9-5.9,4.9c-2.8,0-5-0.9-7.1-2.8l1.2-1.4c1.8,1.6,3.5,2.5,6,2.5
		c2.3,0,3.9-1.2,3.9-3c0-1.6-0.9-2.6-4.5-3.3c-4-0.9-5.8-2.2-5.8-5c0-2.8,2.4-4.8,5.7-4.8c2.5,0,4.3,0.7,6.1,2.1L496,42
		c-1.6-1.3-3.2-1.9-5-1.9c-2.3,0-3.7,1.2-3.7,2.8C487.3,44.6,488.2,45.5,492,46.3z"/>
</g>
<rect x="159.1" y="38.5" class="st3" width="1.8" height="17.4"/>
</svg>
