<?xml version="1.0" encoding="utf-8"?>
<!-- Generator: Adobe Illustrator 21.1.0, SVG Export Plug-In . SVG Version: 6.00 Build 0)  -->
<!DOCTYPE svg PUBLIC "-//W3C//DTD SVG 1.1//EN" "http://www.w3.org/Graphics/SVG/1.1/DTD/svg11.dtd">
<svg version="1.1" id="Layer_1" xmlns="http://www.w3.org/2000/svg" xmlns:xlink="http://www.w3.org/1999/xlink" x="0px" y="0px"
	 viewBox="0 0 812 242" style="enable-background:new 0 0 812 242;" xml:space="preserve">
<style type="text/css">
	.st0{fill:#FFF;}
	.st1{fill:#FFF;}
</style>
<path class="st0" d="M715.6,54.7c38.3,19.6,61.7,41.9,61.7,61.8c0,47.9-145.1,106.7-303.6,106.7c-106.7,0-182-16.9-219.8-49.1
	c35,41.9,125.9,63.9,247.5,63.9c157.2,0,301.3-52.1,301.3-105.9C802.7,102.7,768.7,75.2,715.6,54.7"/>
<polygon class="st1" points="103.5,82.2 65.1,159.1 47.6,159.1 8.9,82.2 22,82.2 56.1,152.5 56.6,152.5 90.4,82.2 "/>
<rect x="160.9" y="82.2" class="st1" width="12.2" height="77"/>
<path class="st1" d="M236.5,103.9c0-20.6,13.2-22.4,40-22.4c23.4,0,40.3,0.7,39,21.7h-12.2c-0.6-13.4-4.2-14-27.3-14
	c-24,0-27.3,2.1-27.3,12.8c0,14.6,9.8,13.4,30,13.8c25.7,1,38.6,0.5,38.6,21.4c0,21.8-14.4,22.5-41.7,22.5
	c-27.6,0-41.8-2.4-39.5-24.7h12.2c-0.3,17,4.3,17,27.3,17c23.1,0,29.4,0,29.4-15.1c0-14.7-9.2-12.2-29-13.4
	C254.8,122.3,236.5,124.2,236.5,103.9"/>
<rect x="377.7" y="82.2" class="st1" width="12.2" height="77"/>
<polygon class="st1" points="693.6,159.1 673.5,159.1 612.6,89.4 612.3,89.4 612.3,159.1 600,159.1 600,82.2 620.2,82.2 681,152.5 
	681.3,152.5 681.3,82.2 693.6,82.2 "/>
<polygon class="st1" points="47.8,6.1 31.8,51.4 24.5,51.4 8.4,6.1 13.9,6.1 28.1,47.5 28.2,47.5 42.3,6.1 "/>
<path class="st1" d="M85.8,41.8l3.6,9.6h5.3L77.8,6.1h-7.2L54.1,51.4h5.4l3.5-9.6C63,41.8,85.8,41.8,85.8,41.8z M84.4,37.6h-20
	l9.9-27.2L84.4,37.6z"/>
<polygon class="st1" points="148,51.4 139.6,51.4 114.2,10.4 114.1,10.4 114.1,51.4 109,51.4 109,6.1 117.4,6.1 142.7,47.5 
	142.9,47.5 142.9,6.1 148,6.1 "/>
<path class="st1" d="M177.8,51.8c-8.2,0-13.1-5.2-13.1-14.3V20c0-12.8,7.9-14.3,18.8-14.3h4.2c9.4,0,12.3,4.1,12.3,13.1v1.5h-5V19
	c0-6.3-1.3-8.7-7.9-8.7h-2.9c-10.6,0-14.3,1.3-14.3,9.5v12.4c0,10.3,0.4,15,9,15h6.1c8.2,0,10.7-1.1,10.7-7.6V36h5.1v4.2
	c0,10.4-6.6,11.6-15.6,11.6L177.8,51.8"/>
<polygon class="st1" points="219.6,26 242.4,26 242.4,30.2 219.6,30.2 219.6,46.9 243.5,46.9 243.5,51.4 214.5,51.4 214.5,6.1 
	243.5,6.1 243.5,10.7 219.6,10.7 "/>
<polygon class="st1" points="306.3,51.4 301.2,51.4 301.2,10.7 286.6,10.7 286.6,6.1 320.9,6.1 320.9,10.7 306.3,10.7 "/>
<polygon class="st1" points="372,51.4 366.9,51.4 366.9,30.6 340.5,30.6 340.5,51.4 335.4,51.4 335.4,6.1 340.5,6.1 340.5,26 
	366.9,26 366.9,6.1 372,6.1 "/>
<path class="st1" d="M403.4,5.7c-11.3,0.1-14.7,3.9-14.7,15.2V37c0,10.7,3.8,14.7,14.7,14.7h6.1c10.8,0,14.7-4,14.7-14.7V21
	c0-11.4-3.4-15.1-14.7-15.2h-6.1 M409.5,10.3c7.6,0,9.6,1.9,9.6,10.7v16.1c0,9-3,10.1-9.6,10.1h-6.1c-6.6-0.1-9.6-1.1-9.6-10.1V21
	c0-8.8,2-10.7,9.6-10.7H409.5z"/>
<polygon class="st1" points="468.1,51.4 463.1,51.4 446,10 445.8,10 445.8,51.4 440.8,51.4 440.8,6.1 449.6,6.1 465.5,44.9 
	481.6,6.1 490.4,6.1 490.4,51.4 485.3,51.4 485.3,10 485.2,10 "/>
<path class="st1" d="M508.1,51.4h5.1V33.8h17.7c11,0,11-9.9,11-13.9c0-7.8-2-13.7-10.8-13.7h-23L508.1,51.4 M528.9,10.7
	c6.3,0,7.9,1.1,7.9,9.8c0,8.8-3.5,8.7-10.3,8.7h-13.3V10.7H528.9z"/>
<path class="st1" d="M556.5,18.9c0-12.1,5.5-13.2,16.7-13.2c9.8,0,16.8,0.4,16.3,12.8h-5.1c-0.2-7.9-1.7-8.2-11.4-8.2
	c-10,0-11.4,1.3-11.4,7.5c0,8.6,4.1,7.9,12.5,8.1c10.7,0.6,16.1,0.3,16.1,12.6c0,12.8-6,13.3-17.4,13.3c-11.5,0-17.4-1.4-16.5-14.5
	h5.1c-0.1,10,1.8,10,11.4,10c9.6,0,12.3,0,12.3-8.9c0-8.7-3.9-7.2-12.1-7.9C564.1,29.8,556.5,30.9,556.5,18.9"/>
<path class="st1" d="M619.3,5.7C608,5.9,604.6,9.6,604.6,21v16.1c0,10.7,3.8,14.7,14.7,14.7h6.1c10.8,0,14.7-4,14.7-14.7V21
	c0-11.4-3.4-15.1-14.7-15.2h-6.1 M625.3,10.3c7.6,0,9.6,1.9,9.6,10.7v16.1c0,9-2.9,10.1-9.6,10.1h-6.1c-6.6-0.1-9.6-1.1-9.6-10.1V21
	c0-8.8,2-10.7,9.6-10.7H625.3z"/>
<polygon class="st1" points="695.5,51.4 687.1,51.4 661.7,10.4 661.6,10.4 661.6,51.4 656.5,51.4 656.5,6.1 664.9,6.1 690.2,47.5 
	690.4,47.5 690.4,6.1 695.5,6.1 "/>
<path class="st0" d="M496.1,168.5c25.9,0,46.9-21.1,46.9-47c0-26-21-47-46.9-47s-46.9,21.1-46.9,47S470.2,168.5,496.1,168.5"/>
</svg>
